<?xml version="1.0" standalone="no"?>
<mlt LC_NUMERIC="C" version="6.23.0" title="Shotcut version 20.10.31" producer="main_bin">
  <profile description="automatic" width="1280" height="720" progressive="1" sample_aspect_num="1" sample_aspect_den="1" display_aspect_num="1280" display_aspect_den="720" frame_rate_num="30" frame_rate_den="1" colorspace="709"/>
  <producer id="producer0" in="00:00:00.000" out="00:00:32.300">
    <property name="length">00:00:32.333</property>
    <property name="eof">pause</property>
    <property name="resource">/Users/pgrylls/University of Southampton/SoftCarp/data-analysis-and-visualisation/Videos/Day2/Clips/2020-11-19 14-45-56.mkv</property>
    <property name="audio_index">1</property>
    <property name="video_index">0</property>
    <property name="mute_on_pause">0</property>
    <property name="mlt_service">avformat-novalidate</property>
    <property name="seekable">1</property>
    <property name="aspect_ratio">1</property>
    <property name="creation_time">2020-11-19T14:46:29</property>
    <property name="global_feed">1</property>
    <property name="xml">was here</property>
    <property name="shotcut:hash">a9c2c1c5e14c88b56e290b227543a32c</property>
  </producer>
  <producer id="producer1" in="00:00:00.000" out="00:00:44.833">
    <property name="length">00:00:44.867</property>
    <property name="eof">pause</property>
    <property name="resource">/Users/pgrylls/University of Southampton/SoftCarp/data-analysis-and-visualisation/Videos/Day2/Clips/2020-11-19 14-13-15.mkv</property>
    <property name="audio_index">1</property>
    <property name="video_index">0</property>
    <property name="mute_on_pause">0</property>
    <property name="mlt_service">avformat-novalidate</property>
    <property name="seekable">1</property>
    <property name="aspect_ratio">1</property>
    <property name="creation_time">2020-11-19T14:14:00</property>
    <property name="shotcut:hash">f7b9d6597bdd3a4c36bba54b0439f7af</property>
    <property name="global_feed">1</property>
    <property name="xml">was here</property>
    <property name="ignore_points">1</property>
    <property name="shotcut:caption">2020-11-19 14-13-15.mkv</property>
  </producer>
  <producer id="producer2" in="00:00:00.000" out="00:00:33.267">
    <property name="length">00:00:33.300</property>
    <property name="eof">pause</property>
    <property name="resource">/Users/pgrylls/University of Southampton/SoftCarp/data-analysis-and-visualisation/Videos/Day2/Clips/2020-11-19 14-52-52.mkv</property>
    <property name="audio_index">1</property>
    <property name="video_index">0</property>
    <property name="mute_on_pause">0</property>
    <property name="mlt_service">avformat-novalidate</property>
    <property name="seekable">1</property>
    <property name="aspect_ratio">1</property>
    <property name="creation_time">2020-11-19T14:53:26</property>
    <property name="global_feed">1</property>
    <property name="xml">was here</property>
    <property name="shotcut:hash">c9133b706a21c5874795e56848ed6af5</property>
  </producer>
  <producer id="producer3" in="00:00:00.000" out="00:00:01.500">
    <property name="length">00:00:01.533</property>
    <property name="eof">pause</property>
    <property name="resource">/Users/pgrylls/Downloads/mk64_mario03.wav</property>
    <property name="audio_index">0</property>
    <property name="video_index">-1</property>
    <property name="mute_on_pause">0</property>
    <property name="mlt_service">avformat-novalidate</property>
    <property name="seekable">1</property>
    <property name="creation_time">2020-11-20T10:52:18</property>
    <property name="global_feed">1</property>
    <property name="xml">was here</property>
    <property name="shotcut:hash">93a0dd0abe781be25a4e5c941bf36ff1</property>
    <property name="ignore_points">1</property>
    <property name="shotcut:caption">mk64_mario03.wav</property>
  </producer>
  <producer id="producer4" in="00:00:00.000" out="00:00:13.367">
    <property name="length">00:00:13.400</property>
    <property name="eof">pause</property>
    <property name="resource">/Users/pgrylls/University of Southampton/SoftCarp/data-analysis-and-visualisation/Videos/Day2/Clips/2020-11-19 14-21-30.mkv</property>
    <property name="audio_index">1</property>
    <property name="video_index">0</property>
    <property name="mute_on_pause">0</property>
    <property name="mlt_service">avformat-novalidate</property>
    <property name="seekable">1</property>
    <property name="aspect_ratio">1</property>
    <property name="creation_time">2020-11-19T14:21:44</property>
    <property name="shotcut:hash">9b925b002bb7c3a4c2d2385f931c5fbc</property>
    <property name="global_feed">1</property>
    <property name="xml">was here</property>
    <property name="ignore_points">1</property>
    <property name="shotcut:caption">2020-11-19 14-21-30.mkv</property>
  </producer>
  <producer id="producer5" in="00:00:00.000" out="00:00:00.733">
    <property name="length">00:00:00.767</property>
    <property name="eof">pause</property>
    <property name="resource">/Users/pgrylls/Downloads/smb3_pipe.wav</property>
    <property name="audio_index">0</property>
    <property name="video_index">-1</property>
    <property name="mute_on_pause">0</property>
    <property name="mlt_service">avformat-novalidate</property>
    <property name="seekable">1</property>
    <property name="creation_time">2020-11-20T10:50:31</property>
    <property name="global_feed">1</property>
    <property name="xml">was here</property>
    <property name="shotcut:hash">d662a19473ba99fce5f4566a3f6e3a5f</property>
  </producer>
  <producer id="producer6" in="00:00:00.000" out="00:00:21.033">
    <property name="length">00:00:21.067</property>
    <property name="eof">pause</property>
    <property name="resource">/Users/pgrylls/University of Southampton/SoftCarp/data-analysis-and-visualisation/Videos/Day2/Clips/2020-11-19 14-21-57.mkv</property>
    <property name="audio_index">1</property>
    <property name="video_index">0</property>
    <property name="mute_on_pause">0</property>
    <property name="mlt_service">avformat-novalidate</property>
    <property name="seekable">1</property>
    <property name="aspect_ratio">1</property>
    <property name="creation_time">2020-11-19T14:22:19</property>
    <property name="shotcut:hash">c0c3e95681e8d6c4684ec3b1e1eda2f8</property>
    <property name="global_feed">1</property>
    <property name="xml">was here</property>
    <property name="ignore_points">1</property>
    <property name="shotcut:caption">2020-11-19 14-21-57.mkv</property>
  </producer>
  <producer id="producer7" in="00:00:00.000" out="00:00:21.167">
    <property name="length">00:00:21.200</property>
    <property name="eof">pause</property>
    <property name="resource">/Users/pgrylls/University of Southampton/SoftCarp/data-analysis-and-visualisation/Videos/Day2/Clips/2020-11-19 14-22-26.mkv</property>
    <property name="audio_index">1</property>
    <property name="video_index">0</property>
    <property name="mute_on_pause">0</property>
    <property name="mlt_service">avformat-novalidate</property>
    <property name="seekable">1</property>
    <property name="aspect_ratio">1</property>
    <property name="creation_time">2020-11-19T14:22:48</property>
    <property name="shotcut:hash">d518e4871da84b190bedbc192da1f51b</property>
    <property name="global_feed">1</property>
    <property name="xml">was here</property>
  </producer>
  <producer id="producer8" in="00:00:00.000" out="00:00:16.167">
    <property name="length">00:00:16.200</property>
    <property name="eof">pause</property>
    <property name="resource">/Users/pgrylls/University of Southampton/SoftCarp/data-analysis-and-visualisation/Videos/Day2/Clips/2020-11-19 14-22-55.mkv</property>
    <property name="audio_index">1</property>
    <property name="video_index">0</property>
    <property name="mute_on_pause">0</property>
    <property name="mlt_service">avformat-novalidate</property>
    <property name="seekable">1</property>
    <property name="aspect_ratio">1</property>
    <property name="creation_time">2020-11-19T14:23:12</property>
    <property name="shotcut:hash">7fb8f9005b5b511bdc50271316462d86</property>
    <property name="global_feed">1</property>
    <property name="xml">was here</property>
  </producer>
  <producer id="producer9" in="00:00:00.000" out="00:00:16.033">
    <property name="length">00:00:16.067</property>
    <property name="eof">pause</property>
    <property name="resource">/Users/pgrylls/University of Southampton/SoftCarp/data-analysis-and-visualisation/Videos/Day2/Clips/2020-11-19 14-23-16.mkv</property>
    <property name="audio_index">1</property>
    <property name="video_index">0</property>
    <property name="mute_on_pause">0</property>
    <property name="mlt_service">avformat-novalidate</property>
    <property name="seekable">1</property>
    <property name="aspect_ratio">1</property>
    <property name="creation_time">2020-11-19T14:23:33</property>
    <property name="shotcut:hash">a471562d81acb99aebe9aee3552504b7</property>
    <property name="global_feed">1</property>
    <property name="xml">was here</property>
  </producer>
  <producer id="producer10" in="00:00:00.000" out="00:00:27.500">
    <property name="length">00:00:27.533</property>
    <property name="eof">pause</property>
    <property name="resource">/Users/pgrylls/University of Southampton/SoftCarp/data-analysis-and-visualisation/Videos/Day2/Clips/2020-11-19 14-23-34.mkv</property>
    <property name="audio_index">1</property>
    <property name="video_index">0</property>
    <property name="mute_on_pause">0</property>
    <property name="mlt_service">avformat-novalidate</property>
    <property name="seekable">1</property>
    <property name="aspect_ratio">1</property>
    <property name="creation_time">2020-11-19T14:24:03</property>
    <property name="shotcut:hash">b90a285a24b14ec1c78962129eebcf82</property>
    <property name="global_feed">1</property>
    <property name="xml">was here</property>
  </producer>
  <producer id="producer11" in="00:00:00.000" out="00:00:12.167">
    <property name="length">00:00:12.200</property>
    <property name="eof">pause</property>
    <property name="resource">/Users/pgrylls/University of Southampton/SoftCarp/data-analysis-and-visualisation/Videos/Day2/Clips/2020-11-19 14-24-12.mkv</property>
    <property name="audio_index">1</property>
    <property name="video_index">0</property>
    <property name="mute_on_pause">0</property>
    <property name="mlt_service">avformat-novalidate</property>
    <property name="seekable">1</property>
    <property name="aspect_ratio">1</property>
    <property name="creation_time">2020-11-19T14:24:25</property>
    <property name="shotcut:hash">5dc952e4a6457158854395e30ade286a</property>
    <property name="global_feed">1</property>
    <property name="xml">was here</property>
  </producer>
  <producer id="producer12" in="00:00:00.000" out="00:00:32.300">
    <property name="length">00:00:32.333</property>
    <property name="eof">pause</property>
    <property name="resource">/Users/pgrylls/University of Southampton/SoftCarp/data-analysis-and-visualisation/Videos/Day2/Clips/2020-11-19 14-24-33.mkv</property>
    <property name="audio_index">1</property>
    <property name="video_index">0</property>
    <property name="mute_on_pause">0</property>
    <property name="mlt_service">avformat-novalidate</property>
    <property name="seekable">1</property>
    <property name="aspect_ratio">1</property>
    <property name="creation_time">2020-11-19T14:25:06</property>
    <property name="shotcut:hash">d64d75f6751ad088238dbbeee501e94e</property>
    <property name="global_feed">1</property>
    <property name="xml">was here</property>
  </producer>
  <producer id="producer13" in="00:00:00.000" out="00:00:00.933">
    <property name="length">00:00:00.967</property>
    <property name="eof">pause</property>
    <property name="resource">/Users/pgrylls/Downloads/sm3dl_mario_lets-a_go_1.wav</property>
    <property name="audio_index">0</property>
    <property name="video_index">-1</property>
    <property name="mute_on_pause">0</property>
    <property name="mlt_service">avformat-novalidate</property>
    <property name="seekable">1</property>
    <property name="creation_time">2020-11-20T10:49:56</property>
    <property name="global_feed">1</property>
    <property name="xml">was here</property>
    <property name="shotcut:hash">ae49272c4ea5119830052d0e3c27296c</property>
    <property name="ignore_points">1</property>
    <property name="shotcut:caption">sm3dl_mario_lets-a_go_1.wav</property>
  </producer>
  <producer id="producer14" in="00:00:00.000" out="00:00:19.567">
    <property name="length">00:00:19.600</property>
    <property name="eof">pause</property>
    <property name="resource">/Users/pgrylls/University of Southampton/SoftCarp/data-analysis-and-visualisation/Videos/Day2/Clips/2020-11-19 14-25-12.mkv</property>
    <property name="audio_index">1</property>
    <property name="video_index">0</property>
    <property name="mute_on_pause">0</property>
    <property name="mlt_service">avformat-novalidate</property>
    <property name="seekable">1</property>
    <property name="aspect_ratio">1</property>
    <property name="creation_time">2020-11-19T14:25:32</property>
    <property name="shotcut:hash">e6a4f5d43c5f6f99dc0b00bbee7b4c58</property>
    <property name="global_feed">1</property>
    <property name="xml">was here</property>
  </producer>
  <playlist id="main_bin" title="Shotcut version 20.10.31">
    <property name="shotcut:projectAudioChannels">2</property>
    <property name="shotcut:projectFolder">1</property>
    <property name="xml_retain">1</property>
    <entry producer="producer0" in="00:00:00.000" out="00:00:32.300"/>
    <entry producer="producer1" in="00:00:00.000" out="00:00:44.833"/>
    <entry producer="producer2" in="00:00:00.000" out="00:00:33.267"/>
    <entry producer="producer3" in="00:00:00.000" out="00:00:01.500"/>
    <entry producer="producer4" in="00:00:00.000" out="00:00:13.367"/>
    <entry producer="producer5" in="00:00:00.000" out="00:00:00.733"/>
    <entry producer="producer6" in="00:00:00.000" out="00:00:21.033"/>
    <entry producer="producer7" in="00:00:00.000" out="00:00:21.167"/>
    <entry producer="producer8" in="00:00:00.000" out="00:00:16.167"/>
    <entry producer="producer9" in="00:00:00.000" out="00:00:16.033"/>
    <entry producer="producer10" in="00:00:00.000" out="00:00:27.500"/>
    <entry producer="producer11" in="00:00:00.000" out="00:00:12.167"/>
    <entry producer="producer12" in="00:00:00.000" out="00:00:32.300"/>
    <entry producer="producer13" in="00:00:00.000" out="00:00:00.933"/>
    <entry producer="producer14" in="00:00:00.000" out="00:00:19.567"/>
  </playlist>
  <producer id="black" in="00:00:00.000" out="00:03:33.533">
    <property name="length">00:03:33.567</property>
    <property name="eof">pause</property>
    <property name="resource">0</property>
    <property name="aspect_ratio">1</property>
    <property name="mlt_service">color</property>
    <property name="mlt_image_format">rgb24a</property>
    <property name="set.test_audio">0</property>
  </producer>
  <playlist id="background">
    <entry producer="black" in="00:00:00.000" out="00:03:33.533"/>
  </playlist>
  <producer id="producer15" in="00:00:00.000" out="00:00:32.300">
    <property name="length">00:00:32.333</property>
    <property name="eof">pause</property>
    <property name="resource">/Users/pgrylls/University of Southampton/SoftCarp/data-analysis-and-visualisation/Videos/Day2/Clips/2020-11-19 14-45-56.mkv</property>
    <property name="audio_index">1</property>
    <property name="video_index">0</property>
    <property name="mute_on_pause">0</property>
    <property name="mlt_service">avformat-novalidate</property>
    <property name="seekable">1</property>
    <property name="aspect_ratio">1</property>
    <property name="creation_time">2020-11-19T14:46:29</property>
    <property name="global_feed">1</property>
    <property name="xml">was here</property>
    <property name="shotcut:hash">a9c2c1c5e14c88b56e290b227543a32c</property>
    <property name="shotcut:caption">2020-11-19 14-45-56.mkv</property>
    <filter id="filter0" in="00:00:00.633" out="00:00:05.500">
      <property name="argument"></property>
      <property name="geometry">312 624 968 96 1</property>
      <property name="family">Sans</property>
      <property name="size">48</property>
      <property name="weight">400</property>
      <property name="style">normal</property>
      <property name="fgcolour">0x000000ff</property>
      <property name="bgcolour">#00000000</property>
      <property name="olcolour">0x00000000</property>
      <property name="pad">0</property>
      <property name="halign">left</property>
      <property name="valign">top</property>
      <property name="outline">0</property>
      <property name="pixel_ratio">1</property>
      <property name="mlt_service">qtext</property>
      <property name="shotcut:filter">richText</property>
      <property name="html">&lt;!DOCTYPE HTML PUBLIC &quot;-//W3C//DTD HTML 4.0//EN&quot; &quot;http://www.w3.org/TR/REC-html40/strict.dtd&quot;&gt;
&lt;html&gt;&lt;head&gt;&lt;meta name=&quot;qrichtext&quot; content=&quot;1&quot; /&gt;&lt;style type=&quot;text/css&quot;&gt;
p, li { white-space: pre-wrap; }
&lt;/style&gt;&lt;/head&gt;&lt;body style=&quot; font-family:'.AppleSystemUIFont'; font-size:13pt; font-weight:400; font-style:normal;&quot;&gt;
&lt;p align=&quot;center&quot; style=&quot; margin-top:0px; margin-bottom:0px; margin-left:0px; margin-right:0px; -qt-block-indent:0; text-indent:0px;&quot;&gt;&lt;span style=&quot; font-family:'sans-serif'; font-size:32pt; font-weight:600; color:#ffffff;&quot;&gt;Hello and welcome to the second day of Data Analysis and Visualisation in R.&lt;/span&gt;&lt;/p&gt;
&lt;p align=&quot;center&quot; style=&quot;-qt-paragraph-type:empty; margin-top:0px; margin-bottom:0px; margin-left:0px; margin-right:0px; -qt-block-indent:0; text-indent:0px; font-family:'sans-serif'; font-size:32pt; font-weight:600; color:#ffffff;&quot;&gt;&lt;br /&gt;&lt;/p&gt;
&lt;p align=&quot;center&quot; style=&quot;-qt-paragraph-type:empty; margin-top:0px; margin-bottom:0px; margin-left:0px; margin-right:0px; -qt-block-indent:0; text-indent:0px; font-family:'sans-serif'; font-size:32pt; font-weight:600; color:#ffffff;&quot;&gt;&lt;br /&gt;&lt;/p&gt;&lt;/body&gt;&lt;/html&gt;</property>
      <property name="shotcut:animIn">00:00:00.000</property>
      <property name="shotcut:animOut">00:00:00.000</property>
    </filter>
  </producer>
  <producer id="producer16" in="00:00:00.000" out="00:00:32.300">
    <property name="length">00:00:32.333</property>
    <property name="eof">pause</property>
    <property name="resource">/Users/pgrylls/University of Southampton/SoftCarp/data-analysis-and-visualisation/Videos/Day2/Clips/2020-11-19 14-45-56.mkv</property>
    <property name="audio_index">1</property>
    <property name="video_index">0</property>
    <property name="mute_on_pause">0</property>
    <property name="mlt_service">avformat-novalidate</property>
    <property name="seekable">1</property>
    <property name="aspect_ratio">1</property>
    <property name="creation_time">2020-11-19T14:46:29</property>
    <property name="global_feed">1</property>
    <property name="xml">was here</property>
    <property name="shotcut:hash">a9c2c1c5e14c88b56e290b227543a32c</property>
    <property name="shotcut:caption">2020-11-19 14-45-56.mkv</property>
    <filter id="filter1" in="00:00:05.533" out="00:00:09.733">
      <property name="argument"></property>
      <property name="geometry">312 624 968 96 1</property>
      <property name="family">Sans</property>
      <property name="size">48</property>
      <property name="weight">400</property>
      <property name="style">normal</property>
      <property name="fgcolour">0x000000ff</property>
      <property name="bgcolour">#00000000</property>
      <property name="olcolour">0x00000000</property>
      <property name="pad">0</property>
      <property name="halign">left</property>
      <property name="valign">top</property>
      <property name="outline">0</property>
      <property name="pixel_ratio">1</property>
      <property name="mlt_service">qtext</property>
      <property name="shotcut:filter">richText</property>
      <property name="html">&lt;!DOCTYPE HTML PUBLIC &quot;-//W3C//DTD HTML 4.0//EN&quot; &quot;http://www.w3.org/TR/REC-html40/strict.dtd&quot;&gt;
&lt;html&gt;&lt;head&gt;&lt;meta name=&quot;qrichtext&quot; content=&quot;1&quot; /&gt;&lt;style type=&quot;text/css&quot;&gt;
p, li { white-space: pre-wrap; }
&lt;/style&gt;&lt;/head&gt;&lt;body style=&quot; font-family:'.AppleSystemUIFont'; font-size:13pt; font-weight:400; font-style:normal;&quot;&gt;
&lt;p align=&quot;center&quot; style=&quot; margin-top:0px; margin-bottom:0px; margin-left:0px; margin-right:0px; -qt-block-indent:0; text-indent:0px;&quot;&gt;&lt;span style=&quot; font-family:'Calibri'; font-size:32pt; color:#ffffff;&quot;&gt;Last lesson we introduced R and its popular editor RStudio&lt;/span&gt;&lt;/p&gt;&lt;/body&gt;&lt;/html&gt;</property>
      <property name="shotcut:animIn">00:00:00.000</property>
      <property name="shotcut:animOut">00:00:00.000</property>
    </filter>
  </producer>
  <producer id="producer17" in="00:00:00.000" out="00:00:32.300">
    <property name="length">00:00:32.333</property>
    <property name="eof">pause</property>
    <property name="resource">/Users/pgrylls/University of Southampton/SoftCarp/data-analysis-and-visualisation/Videos/Day2/Clips/2020-11-19 14-45-56.mkv</property>
    <property name="audio_index">1</property>
    <property name="video_index">0</property>
    <property name="mute_on_pause">0</property>
    <property name="mlt_service">avformat-novalidate</property>
    <property name="seekable">1</property>
    <property name="aspect_ratio">1</property>
    <property name="creation_time">2020-11-19T14:46:29</property>
    <property name="global_feed">1</property>
    <property name="xml">was here</property>
    <property name="shotcut:hash">a9c2c1c5e14c88b56e290b227543a32c</property>
    <property name="shotcut:caption">2020-11-19 14-45-56.mkv</property>
    <filter id="filter2" in="00:00:09.767" out="00:00:17.433">
      <property name="argument"></property>
      <property name="geometry">312 624 968 96 1</property>
      <property name="family">Sans</property>
      <property name="size">48</property>
      <property name="weight">400</property>
      <property name="style">normal</property>
      <property name="fgcolour">0x000000ff</property>
      <property name="bgcolour">#00000000</property>
      <property name="olcolour">0x00000000</property>
      <property name="pad">0</property>
      <property name="halign">left</property>
      <property name="valign">top</property>
      <property name="outline">0</property>
      <property name="pixel_ratio">1</property>
      <property name="mlt_service">qtext</property>
      <property name="shotcut:filter">richText</property>
      <property name="html">&lt;!DOCTYPE HTML PUBLIC &quot;-//W3C//DTD HTML 4.0//EN&quot; &quot;http://www.w3.org/TR/REC-html40/strict.dtd&quot;&gt;
&lt;html&gt;&lt;head&gt;&lt;meta name=&quot;qrichtext&quot; content=&quot;1&quot; /&gt;&lt;style type=&quot;text/css&quot;&gt;
p, li { white-space: pre-wrap; }
&lt;/style&gt;&lt;/head&gt;&lt;body style=&quot; font-family:'.AppleSystemUIFont'; font-size:13pt; font-weight:400; font-style:normal;&quot;&gt;
&lt;p align=&quot;center&quot; style=&quot; margin-top:0px; margin-bottom:0px; margin-left:0px; margin-right:0px; -qt-block-indent:0; text-indent:0px;&quot;&gt;&lt;span style=&quot; font-family:'sans-serif'; font-size:28pt; font-weight:600; color:#ffffff;&quot;&gt;we used RStudio to set up the working environment and learnt how to work with objects,  functions, vectors, and data-frames&lt;/span&gt;&lt;/p&gt;&lt;/body&gt;&lt;/html&gt;</property>
      <property name="shotcut:animIn">00:00:00.000</property>
      <property name="shotcut:animOut">00:00:00.000</property>
    </filter>
  </producer>
  <producer id="producer18" in="00:00:00.000" out="00:00:32.300">
    <property name="length">00:00:32.333</property>
    <property name="eof">pause</property>
    <property name="resource">/Users/pgrylls/University of Southampton/SoftCarp/data-analysis-and-visualisation/Videos/Day2/Clips/2020-11-19 14-45-56.mkv</property>
    <property name="audio_index">1</property>
    <property name="video_index">0</property>
    <property name="mute_on_pause">0</property>
    <property name="mlt_service">avformat-novalidate</property>
    <property name="seekable">1</property>
    <property name="aspect_ratio">1</property>
    <property name="creation_time">2020-11-19T14:46:29</property>
    <property name="global_feed">1</property>
    <property name="xml">was here</property>
    <property name="shotcut:hash">a9c2c1c5e14c88b56e290b227543a32c</property>
    <property name="shotcut:caption">2020-11-19 14-45-56.mkv</property>
    <filter id="filter3" in="00:00:17.467" out="00:00:22.733">
      <property name="argument"></property>
      <property name="geometry">312 624 968 96 1</property>
      <property name="family">Sans</property>
      <property name="size">48</property>
      <property name="weight">400</property>
      <property name="style">normal</property>
      <property name="fgcolour">0x000000ff</property>
      <property name="bgcolour">#00000000</property>
      <property name="olcolour">0x00000000</property>
      <property name="pad">0</property>
      <property name="halign">left</property>
      <property name="valign">top</property>
      <property name="outline">0</property>
      <property name="pixel_ratio">1</property>
      <property name="mlt_service">qtext</property>
      <property name="shotcut:filter">richText</property>
      <property name="html">&lt;!DOCTYPE HTML PUBLIC &quot;-//W3C//DTD HTML 4.0//EN&quot; &quot;http://www.w3.org/TR/REC-html40/strict.dtd&quot;&gt;
&lt;html&gt;&lt;head&gt;&lt;meta name=&quot;qrichtext&quot; content=&quot;1&quot; /&gt;&lt;style type=&quot;text/css&quot;&gt;
p, li { white-space: pre-wrap; }
&lt;/style&gt;&lt;/head&gt;&lt;body style=&quot; font-family:'.AppleSystemUIFont'; font-size:13pt; font-weight:400; font-style:normal;&quot;&gt;
&lt;p align=&quot;center&quot; style=&quot; margin-top:0px; margin-bottom:0px; margin-left:0px; margin-right:0px; -qt-block-indent:0; text-indent:0px;&quot;&gt;&lt;span style=&quot; font-family:'sans-serif'; font-size:32pt; font-weight:600; color:#ffffff;&quot;&gt;In this lesson we are going to deepen our knowledge of data-frames by learning about factors. &lt;/span&gt;&lt;/p&gt;
&lt;p align=&quot;center&quot; style=&quot;-qt-paragraph-type:empty; margin-top:0px; margin-bottom:0px; margin-left:0px; margin-right:0px; -qt-block-indent:0; text-indent:0px; font-family:'sans-serif'; font-size:32pt; font-weight:600; color:#ffffff;&quot;&gt;&lt;br /&gt;&lt;/p&gt;&lt;/body&gt;&lt;/html&gt;</property>
      <property name="shotcut:animIn">00:00:00.000</property>
      <property name="shotcut:animOut">00:00:00.000</property>
    </filter>
  </producer>
  <producer id="producer19" in="00:00:00.000" out="00:00:32.300">
    <property name="length">00:00:32.333</property>
    <property name="eof">pause</property>
    <property name="resource">/Users/pgrylls/University of Southampton/SoftCarp/data-analysis-and-visualisation/Videos/Day2/Clips/2020-11-19 14-45-56.mkv</property>
    <property name="audio_index">1</property>
    <property name="video_index">0</property>
    <property name="mute_on_pause">0</property>
    <property name="mlt_service">avformat-novalidate</property>
    <property name="seekable">1</property>
    <property name="aspect_ratio">1</property>
    <property name="creation_time">2020-11-19T14:46:29</property>
    <property name="global_feed">1</property>
    <property name="xml">was here</property>
    <property name="shotcut:hash">a9c2c1c5e14c88b56e290b227543a32c</property>
    <property name="shotcut:caption">2020-11-19 14-45-56.mkv</property>
    <filter id="filter4" in="00:00:22.767" out="00:00:29.200">
      <property name="argument"></property>
      <property name="geometry">312 624 968 96 1</property>
      <property name="family">Sans</property>
      <property name="size">48</property>
      <property name="weight">400</property>
      <property name="style">normal</property>
      <property name="fgcolour">0x000000ff</property>
      <property name="bgcolour">#00000000</property>
      <property name="olcolour">0x00000000</property>
      <property name="pad">0</property>
      <property name="halign">left</property>
      <property name="valign">top</property>
      <property name="outline">0</property>
      <property name="pixel_ratio">1</property>
      <property name="mlt_service">qtext</property>
      <property name="shotcut:filter">richText</property>
      <property name="html">&lt;!DOCTYPE HTML PUBLIC &quot;-//W3C//DTD HTML 4.0//EN&quot; &quot;http://www.w3.org/TR/REC-html40/strict.dtd&quot;&gt;
&lt;html&gt;&lt;head&gt;&lt;meta name=&quot;qrichtext&quot; content=&quot;1&quot; /&gt;&lt;style type=&quot;text/css&quot;&gt;
p, li { white-space: pre-wrap; }
&lt;/style&gt;&lt;/head&gt;&lt;body style=&quot; font-family:'.AppleSystemUIFont'; font-size:13pt; font-weight:400; font-style:normal;&quot;&gt;
&lt;p align=&quot;center&quot; style=&quot; margin-top:0px; margin-bottom:0px; margin-left:0px; margin-right:0px; -qt-block-indent:0; text-indent:0px;&quot;&gt;&lt;span style=&quot; font-family:'sans-serif'; font-size:32pt; font-weight:600; color:#ffffff;&quot;&gt;Then we will delve into two of Râ€™s most popular packages dplyr and tidyr &lt;/span&gt;&lt;/p&gt;&lt;/body&gt;&lt;/html&gt;</property>
      <property name="shotcut:animIn">00:00:00.000</property>
      <property name="shotcut:animOut">00:00:00.000</property>
    </filter>
  </producer>
  <producer id="producer20" in="00:00:00.000" out="00:00:32.300">
    <property name="length">00:00:32.333</property>
    <property name="eof">pause</property>
    <property name="resource">/Users/pgrylls/University of Southampton/SoftCarp/data-analysis-and-visualisation/Videos/Day2/Clips/2020-11-19 14-45-56.mkv</property>
    <property name="audio_index">1</property>
    <property name="video_index">0</property>
    <property name="mute_on_pause">0</property>
    <property name="mlt_service">avformat-novalidate</property>
    <property name="seekable">1</property>
    <property name="aspect_ratio">1</property>
    <property name="creation_time">2020-11-19T14:46:29</property>
    <property name="global_feed">1</property>
    <property name="xml">was here</property>
    <property name="shotcut:hash">a9c2c1c5e14c88b56e290b227543a32c</property>
    <property name="shotcut:caption">2020-11-19 14-45-56.mkv</property>
    <filter id="filter5" in="00:00:29.233" out="00:00:32.300">
      <property name="argument"></property>
      <property name="geometry">312 624 968 96 1</property>
      <property name="family">Sans</property>
      <property name="size">48</property>
      <property name="weight">400</property>
      <property name="style">normal</property>
      <property name="fgcolour">0x000000ff</property>
      <property name="bgcolour">#00000000</property>
      <property name="olcolour">0x00000000</property>
      <property name="pad">0</property>
      <property name="halign">left</property>
      <property name="valign">top</property>
      <property name="outline">0</property>
      <property name="pixel_ratio">1</property>
      <property name="mlt_service">qtext</property>
      <property name="shotcut:filter">richText</property>
      <property name="html">&lt;!DOCTYPE HTML PUBLIC &quot;-//W3C//DTD HTML 4.0//EN&quot; &quot;http://www.w3.org/TR/REC-html40/strict.dtd&quot;&gt;
&lt;html&gt;&lt;head&gt;&lt;meta name=&quot;qrichtext&quot; content=&quot;1&quot; /&gt;&lt;style type=&quot;text/css&quot;&gt;
p, li { white-space: pre-wrap; }
&lt;/style&gt;&lt;/head&gt;&lt;body style=&quot; font-family:'.AppleSystemUIFont'; font-size:13pt; font-weight:400; font-style:normal;&quot;&gt;
&lt;p align=&quot;center&quot; style=&quot; margin-top:0px; margin-bottom:0px; margin-left:0px; margin-right:0px; -qt-block-indent:0; text-indent:0px;&quot;&gt;&lt;span style=&quot; font-family:'sans-serif'; font-size:32pt; font-weight:600; color:#ffffff;&quot;&gt;which are provided though Tidyverse.&lt;/span&gt;&lt;/p&gt;&lt;/body&gt;&lt;/html&gt;</property>
      <property name="shotcut:animIn">00:00:00.000</property>
      <property name="shotcut:animOut">00:00:00.000</property>
    </filter>
  </producer>
  <producer id="producer21" in="00:00:00.000" out="00:00:44.833">
    <property name="length">00:00:44.867</property>
    <property name="eof">pause</property>
    <property name="resource">/Users/pgrylls/University of Southampton/SoftCarp/data-analysis-and-visualisation/Videos/Day2/Clips/2020-11-19 14-13-15.mkv</property>
    <property name="audio_index">1</property>
    <property name="video_index">0</property>
    <property name="mute_on_pause">0</property>
    <property name="mlt_service">avformat-novalidate</property>
    <property name="seekable">1</property>
    <property name="aspect_ratio">1</property>
    <property name="creation_time">2020-11-19T14:14:00</property>
    <property name="shotcut:hash">f7b9d6597bdd3a4c36bba54b0439f7af</property>
    <property name="global_feed">1</property>
    <property name="xml">was here</property>
    <property name="ignore_points">0</property>
    <property name="shotcut:caption">2020-11-19 14-13-15.mkv</property>
    <filter id="filter6" out="00:00:03.067">
      <property name="argument"></property>
      <property name="geometry">312 624 968 96 1</property>
      <property name="family">Sans</property>
      <property name="size">48</property>
      <property name="weight">400</property>
      <property name="style">normal</property>
      <property name="fgcolour">0x000000ff</property>
      <property name="bgcolour">#00000000</property>
      <property name="olcolour">0x00000000</property>
      <property name="pad">0</property>
      <property name="halign">left</property>
      <property name="valign">top</property>
      <property name="outline">0</property>
      <property name="pixel_ratio">1</property>
      <property name="mlt_service">qtext</property>
      <property name="shotcut:filter">richText</property>
      <property name="html">&lt;!DOCTYPE HTML PUBLIC &quot;-//W3C//DTD HTML 4.0//EN&quot; &quot;http://www.w3.org/TR/REC-html40/strict.dtd&quot;&gt;
&lt;html&gt;&lt;head&gt;&lt;meta name=&quot;qrichtext&quot; content=&quot;1&quot; /&gt;&lt;style type=&quot;text/css&quot;&gt;
p, li { white-space: pre-wrap; }
&lt;/style&gt;&lt;/head&gt;&lt;body style=&quot; font-family:'.AppleSystemUIFont'; font-size:13pt; font-weight:400; font-style:normal;&quot;&gt;
&lt;p align=&quot;center&quot; style=&quot; margin-top:0px; margin-bottom:0px; margin-left:0px; margin-right:0px; -qt-block-indent:0; text-indent:0px;&quot;&gt;&lt;span style=&quot; font-family:'sans-serif'; font-size:32pt; font-weight:600; color:#ffffff;&quot;&gt;Firstly, we will take a look at factors.&lt;/span&gt;&lt;/p&gt;
&lt;p align=&quot;center&quot; style=&quot;-qt-paragraph-type:empty; margin-top:0px; margin-bottom:0px; margin-left:0px; margin-right:0px; -qt-block-indent:0; text-indent:0px; font-family:'sans-serif'; font-size:32pt; font-weight:600; color:#ffffff;&quot;&gt;&lt;br /&gt;&lt;/p&gt;&lt;/body&gt;&lt;/html&gt;</property>
      <property name="shotcut:animIn">00:00:00.000</property>
      <property name="shotcut:animOut">00:00:00.000</property>
    </filter>
  </producer>
  <producer id="producer22" in="00:00:00.000" out="00:00:44.833">
    <property name="length">00:00:44.867</property>
    <property name="eof">pause</property>
    <property name="resource">/Users/pgrylls/University of Southampton/SoftCarp/data-analysis-and-visualisation/Videos/Day2/Clips/2020-11-19 14-13-15.mkv</property>
    <property name="audio_index">1</property>
    <property name="video_index">0</property>
    <property name="mute_on_pause">0</property>
    <property name="mlt_service">avformat-novalidate</property>
    <property name="seekable">1</property>
    <property name="aspect_ratio">1</property>
    <property name="creation_time">2020-11-19T14:14:00</property>
    <property name="shotcut:hash">f7b9d6597bdd3a4c36bba54b0439f7af</property>
    <property name="global_feed">1</property>
    <property name="xml">was here</property>
    <property name="ignore_points">0</property>
    <property name="shotcut:caption">2020-11-19 14-13-15.mkv</property>
    <filter id="filter7" in="00:00:03.100" out="00:00:06.733">
      <property name="argument"></property>
      <property name="geometry">312 624 968 96 1</property>
      <property name="family">Sans</property>
      <property name="size">48</property>
      <property name="weight">400</property>
      <property name="style">normal</property>
      <property name="fgcolour">0x000000ff</property>
      <property name="bgcolour">#00000000</property>
      <property name="olcolour">0x00000000</property>
      <property name="pad">0</property>
      <property name="halign">left</property>
      <property name="valign">top</property>
      <property name="outline">0</property>
      <property name="pixel_ratio">1</property>
      <property name="mlt_service">qtext</property>
      <property name="shotcut:filter">richText</property>
      <property name="html">&lt;!DOCTYPE HTML PUBLIC &quot;-//W3C//DTD HTML 4.0//EN&quot; &quot;http://www.w3.org/TR/REC-html40/strict.dtd&quot;&gt;
&lt;html&gt;&lt;head&gt;&lt;meta name=&quot;qrichtext&quot; content=&quot;1&quot; /&gt;&lt;style type=&quot;text/css&quot;&gt;
p, li { white-space: pre-wrap; }
&lt;/style&gt;&lt;/head&gt;&lt;body style=&quot; font-family:'.AppleSystemUIFont'; font-size:13pt; font-weight:400; font-style:normal;&quot;&gt;
&lt;p align=&quot;center&quot; style=&quot; margin-top:0px; margin-bottom:0px; margin-left:0px; margin-right:0px; -qt-block-indent:0; text-indent:0px;&quot;&gt;&lt;span style=&quot; font-size:32pt; font-weight:600; color:#ffffff;&quot;&gt;Factors are an incredibly useful feature provided by R data-frames&lt;/span&gt;&lt;/p&gt;&lt;/body&gt;&lt;/html&gt;</property>
      <property name="shotcut:animIn">00:00:00.000</property>
      <property name="shotcut:animOut">00:00:00.000</property>
    </filter>
  </producer>
  <producer id="producer23" in="00:00:00.000" out="00:00:44.833">
    <property name="length">00:00:44.867</property>
    <property name="eof">pause</property>
    <property name="resource">/Users/pgrylls/University of Southampton/SoftCarp/data-analysis-and-visualisation/Videos/Day2/Clips/2020-11-19 14-13-15.mkv</property>
    <property name="audio_index">1</property>
    <property name="video_index">0</property>
    <property name="mute_on_pause">0</property>
    <property name="mlt_service">avformat-novalidate</property>
    <property name="seekable">1</property>
    <property name="aspect_ratio">1</property>
    <property name="creation_time">2020-11-19T14:14:00</property>
    <property name="shotcut:hash">f7b9d6597bdd3a4c36bba54b0439f7af</property>
    <property name="global_feed">1</property>
    <property name="xml">was here</property>
    <property name="ignore_points">0</property>
    <property name="shotcut:caption">2020-11-19 14-13-15.mkv</property>
    <filter id="filter8" in="00:00:06.767" out="00:00:09.833">
      <property name="argument"></property>
      <property name="geometry">312 624 968 96 1</property>
      <property name="family">Sans</property>
      <property name="size">48</property>
      <property name="weight">400</property>
      <property name="style">normal</property>
      <property name="fgcolour">0x000000ff</property>
      <property name="bgcolour">#00000000</property>
      <property name="olcolour">0x00000000</property>
      <property name="pad">0</property>
      <property name="halign">left</property>
      <property name="valign">top</property>
      <property name="outline">0</property>
      <property name="pixel_ratio">1</property>
      <property name="mlt_service">qtext</property>
      <property name="shotcut:filter">richText</property>
      <property name="html">&lt;!DOCTYPE HTML PUBLIC &quot;-//W3C//DTD HTML 4.0//EN&quot; &quot;http://www.w3.org/TR/REC-html40/strict.dtd&quot;&gt;
&lt;html&gt;&lt;head&gt;&lt;meta name=&quot;qrichtext&quot; content=&quot;1&quot; /&gt;&lt;style type=&quot;text/css&quot;&gt;
p, li { white-space: pre-wrap; }
&lt;/style&gt;&lt;/head&gt;&lt;body style=&quot; font-family:'.AppleSystemUIFont'; font-size:13pt; font-weight:400; font-style:normal;&quot;&gt;
&lt;p align=&quot;center&quot; style=&quot; margin-top:0px; margin-bottom:0px; margin-left:0px; margin-right:0px; -qt-block-indent:0; text-indent:0px;&quot;&gt;&lt;span style=&quot; font-family:'sans-serif'; font-size:32pt; font-weight:600; color:#ffffff;&quot;&gt;through explicit categorisation and naming of string attributes &lt;/span&gt;&lt;/p&gt;
&lt;p align=&quot;center&quot; style=&quot;-qt-paragraph-type:empty; margin-top:0px; margin-bottom:0px; margin-left:0px; margin-right:0px; -qt-block-indent:0; text-indent:0px; font-family:'sans-serif'; font-size:32pt; font-weight:600; color:#ffffff;&quot;&gt;&lt;br /&gt;&lt;/p&gt;&lt;/body&gt;&lt;/html&gt;</property>
      <property name="shotcut:animIn">00:00:00.000</property>
      <property name="shotcut:animOut">00:00:00.000</property>
    </filter>
  </producer>
  <producer id="producer24" in="00:00:00.000" out="00:00:44.833">
    <property name="length">00:00:44.867</property>
    <property name="eof">pause</property>
    <property name="resource">/Users/pgrylls/University of Southampton/SoftCarp/data-analysis-and-visualisation/Videos/Day2/Clips/2020-11-19 14-13-15.mkv</property>
    <property name="audio_index">1</property>
    <property name="video_index">0</property>
    <property name="mute_on_pause">0</property>
    <property name="mlt_service">avformat-novalidate</property>
    <property name="seekable">1</property>
    <property name="aspect_ratio">1</property>
    <property name="creation_time">2020-11-19T14:14:00</property>
    <property name="shotcut:hash">f7b9d6597bdd3a4c36bba54b0439f7af</property>
    <property name="global_feed">1</property>
    <property name="xml">was here</property>
    <property name="ignore_points">0</property>
    <property name="shotcut:caption">2020-11-19 14-13-15.mkv</property>
    <filter id="filter9" in="00:00:09.867" out="00:00:12.400">
      <property name="argument"></property>
      <property name="geometry">312 624 968 96 1</property>
      <property name="family">Sans</property>
      <property name="size">48</property>
      <property name="weight">400</property>
      <property name="style">normal</property>
      <property name="fgcolour">0x000000ff</property>
      <property name="bgcolour">#00000000</property>
      <property name="olcolour">0x00000000</property>
      <property name="pad">0</property>
      <property name="halign">left</property>
      <property name="valign">top</property>
      <property name="outline">0</property>
      <property name="pixel_ratio">1</property>
      <property name="mlt_service">qtext</property>
      <property name="shotcut:filter">richText</property>
      <property name="html">&lt;!DOCTYPE HTML PUBLIC &quot;-//W3C//DTD HTML 4.0//EN&quot; &quot;http://www.w3.org/TR/REC-html40/strict.dtd&quot;&gt;
&lt;html&gt;&lt;head&gt;&lt;meta name=&quot;qrichtext&quot; content=&quot;1&quot; /&gt;&lt;style type=&quot;text/css&quot;&gt;
p, li { white-space: pre-wrap; }
&lt;/style&gt;&lt;/head&gt;&lt;body style=&quot; font-family:'.AppleSystemUIFont'; font-size:13pt; font-weight:400; font-style:normal;&quot;&gt;
&lt;p align=&quot;center&quot; style=&quot; margin-top:0px; margin-bottom:0px; margin-left:0px; margin-right:0px; -qt-block-indent:0; text-indent:0px;&quot;&gt;&lt;span style=&quot; font-family:'sans-serif'; font-size:32pt; font-weight:600; color:#ffffff;&quot;&gt;R can perform powerful data grouping and selection. &lt;/span&gt;&lt;/p&gt;
&lt;p align=&quot;center&quot; style=&quot;-qt-paragraph-type:empty; margin-top:0px; margin-bottom:0px; margin-left:0px; margin-right:0px; -qt-block-indent:0; text-indent:0px; font-family:'sans-serif'; font-size:32pt; font-weight:600; color:#ffffff;&quot;&gt;&lt;br /&gt;&lt;/p&gt;&lt;/body&gt;&lt;/html&gt;</property>
      <property name="shotcut:animIn">00:00:00.000</property>
      <property name="shotcut:animOut">00:00:00.000</property>
    </filter>
  </producer>
  <producer id="producer25" in="00:00:00.000" out="00:00:44.833">
    <property name="length">00:00:44.867</property>
    <property name="eof">pause</property>
    <property name="resource">/Users/pgrylls/University of Southampton/SoftCarp/data-analysis-and-visualisation/Videos/Day2/Clips/2020-11-19 14-13-15.mkv</property>
    <property name="audio_index">1</property>
    <property name="video_index">0</property>
    <property name="mute_on_pause">0</property>
    <property name="mlt_service">avformat-novalidate</property>
    <property name="seekable">1</property>
    <property name="aspect_ratio">1</property>
    <property name="creation_time">2020-11-19T14:14:00</property>
    <property name="shotcut:hash">f7b9d6597bdd3a4c36bba54b0439f7af</property>
    <property name="global_feed">1</property>
    <property name="xml">was here</property>
    <property name="ignore_points">0</property>
    <property name="shotcut:caption">2020-11-19 14-13-15.mkv</property>
    <filter id="filter10" in="00:00:12.433" out="00:00:16.933">
      <property name="argument"></property>
      <property name="geometry">312 624 968 96 1</property>
      <property name="family">Sans</property>
      <property name="size">48</property>
      <property name="weight">400</property>
      <property name="style">normal</property>
      <property name="fgcolour">0x000000ff</property>
      <property name="bgcolour">#00000000</property>
      <property name="olcolour">0x00000000</property>
      <property name="pad">0</property>
      <property name="halign">left</property>
      <property name="valign">top</property>
      <property name="outline">0</property>
      <property name="pixel_ratio">1</property>
      <property name="mlt_service">qtext</property>
      <property name="shotcut:filter">richText</property>
      <property name="html">&lt;!DOCTYPE HTML PUBLIC &quot;-//W3C//DTD HTML 4.0//EN&quot; &quot;http://www.w3.org/TR/REC-html40/strict.dtd&quot;&gt;
&lt;html&gt;&lt;head&gt;&lt;meta name=&quot;qrichtext&quot; content=&quot;1&quot; /&gt;&lt;style type=&quot;text/css&quot;&gt;
p, li { white-space: pre-wrap; }
&lt;/style&gt;&lt;/head&gt;&lt;body style=&quot; font-family:'.AppleSystemUIFont'; font-size:13pt; font-weight:400; font-style:normal;&quot;&gt;
&lt;p align=&quot;center&quot; style=&quot; margin-top:0px; margin-bottom:0px; margin-left:0px; margin-right:0px; -qt-block-indent:0; text-indent:0px;&quot;&gt;&lt;span style=&quot; font-family:'sans-serif'; font-size:32pt; font-weight:600; color:#ffffff;&quot;&gt;We will cover the specific differences between strings and factors and how to switch between the two.&lt;/span&gt;&lt;/p&gt;
&lt;p align=&quot;center&quot; style=&quot;-qt-paragraph-type:empty; margin-top:0px; margin-bottom:0px; margin-left:0px; margin-right:0px; -qt-block-indent:0; text-indent:0px; font-family:'sans-serif'; font-size:32pt; font-weight:600; color:#ffffff;&quot;&gt;&lt;br /&gt;&lt;/p&gt;&lt;/body&gt;&lt;/html&gt;</property>
      <property name="shotcut:animIn">00:00:00.000</property>
      <property name="shotcut:animOut">00:00:00.000</property>
    </filter>
  </producer>
  <producer id="producer26" in="00:00:00.000" out="00:00:44.833">
    <property name="length">00:00:44.867</property>
    <property name="eof">pause</property>
    <property name="resource">/Users/pgrylls/University of Southampton/SoftCarp/data-analysis-and-visualisation/Videos/Day2/Clips/2020-11-19 14-13-15.mkv</property>
    <property name="audio_index">1</property>
    <property name="video_index">0</property>
    <property name="mute_on_pause">0</property>
    <property name="mlt_service">avformat-novalidate</property>
    <property name="seekable">1</property>
    <property name="aspect_ratio">1</property>
    <property name="creation_time">2020-11-19T14:14:00</property>
    <property name="shotcut:hash">f7b9d6597bdd3a4c36bba54b0439f7af</property>
    <property name="global_feed">1</property>
    <property name="xml">was here</property>
    <property name="ignore_points">0</property>
    <property name="shotcut:caption">2020-11-19 14-13-15.mkv</property>
    <filter id="filter11" in="00:00:16.967" out="00:00:20.733">
      <property name="argument"></property>
      <property name="geometry">312 624 968 96 1</property>
      <property name="family">Sans</property>
      <property name="size">48</property>
      <property name="weight">400</property>
      <property name="style">normal</property>
      <property name="fgcolour">0x000000ff</property>
      <property name="bgcolour">#00000000</property>
      <property name="olcolour">0x00000000</property>
      <property name="pad">0</property>
      <property name="halign">left</property>
      <property name="valign">top</property>
      <property name="outline">0</property>
      <property name="pixel_ratio">1</property>
      <property name="mlt_service">qtext</property>
      <property name="shotcut:filter">richText</property>
      <property name="html">&lt;!DOCTYPE HTML PUBLIC &quot;-//W3C//DTD HTML 4.0//EN&quot; &quot;http://www.w3.org/TR/REC-html40/strict.dtd&quot;&gt;
&lt;html&gt;&lt;head&gt;&lt;meta name=&quot;qrichtext&quot; content=&quot;1&quot; /&gt;&lt;style type=&quot;text/css&quot;&gt;
p, li { white-space: pre-wrap; }
&lt;/style&gt;&lt;/head&gt;&lt;body style=&quot; font-family:'.AppleSystemUIFont'; font-size:13pt; font-weight:400; font-style:normal;&quot;&gt;
&lt;p align=&quot;center&quot; style=&quot; margin-top:0px; margin-bottom:0px; margin-left:0px; margin-right:0px; -qt-block-indent:0; text-indent:0px;&quot;&gt;&lt;span style=&quot; font-family:'sans-serif'; font-size:32pt; font-weight:600; color:#ffffff;&quot;&gt;Secondly, we will take a look at two incredibly useful Tidyverse packages&lt;/span&gt;&lt;/p&gt;&lt;/body&gt;&lt;/html&gt;</property>
      <property name="shotcut:animIn">00:00:00.000</property>
      <property name="shotcut:animOut">00:00:00.000</property>
    </filter>
  </producer>
  <producer id="producer27" in="00:00:00.000" out="00:00:44.833">
    <property name="length">00:00:44.867</property>
    <property name="eof">pause</property>
    <property name="resource">/Users/pgrylls/University of Southampton/SoftCarp/data-analysis-and-visualisation/Videos/Day2/Clips/2020-11-19 14-13-15.mkv</property>
    <property name="audio_index">1</property>
    <property name="video_index">0</property>
    <property name="mute_on_pause">0</property>
    <property name="mlt_service">avformat-novalidate</property>
    <property name="seekable">1</property>
    <property name="aspect_ratio">1</property>
    <property name="creation_time">2020-11-19T14:14:00</property>
    <property name="shotcut:hash">f7b9d6597bdd3a4c36bba54b0439f7af</property>
    <property name="global_feed">1</property>
    <property name="xml">was here</property>
    <property name="ignore_points">0</property>
    <property name="shotcut:caption">2020-11-19 14-13-15.mkv</property>
    <filter id="filter12" in="00:00:20.767" out="00:00:26.100">
      <property name="argument"></property>
      <property name="geometry">312 624 968 96 1</property>
      <property name="family">Sans</property>
      <property name="size">48</property>
      <property name="weight">400</property>
      <property name="style">normal</property>
      <property name="fgcolour">0x000000ff</property>
      <property name="bgcolour">#00000000</property>
      <property name="olcolour">0x00000000</property>
      <property name="pad">0</property>
      <property name="halign">left</property>
      <property name="valign">top</property>
      <property name="outline">0</property>
      <property name="pixel_ratio">1</property>
      <property name="mlt_service">qtext</property>
      <property name="shotcut:filter">richText</property>
      <property name="html">&lt;!DOCTYPE HTML PUBLIC &quot;-//W3C//DTD HTML 4.0//EN&quot; &quot;http://www.w3.org/TR/REC-html40/strict.dtd&quot;&gt;
&lt;html&gt;&lt;head&gt;&lt;meta name=&quot;qrichtext&quot; content=&quot;1&quot; /&gt;&lt;style type=&quot;text/css&quot;&gt;
p, li { white-space: pre-wrap; }
&lt;/style&gt;&lt;/head&gt;&lt;body style=&quot; font-family:'.AppleSystemUIFont'; font-size:13pt; font-weight:400; font-style:normal;&quot;&gt;
&lt;p align=&quot;center&quot; style=&quot; margin-top:0px; margin-bottom:0px; margin-left:0px; margin-right:0px; -qt-block-indent:0; text-indent:0px;&quot;&gt;&lt;span style=&quot; font-family:'sans-serif'; font-size:32pt; font-weight:600; color:#ffffff;&quot;&gt;â€˜dplyrâ€™ is a package that provides a consistent â€˜grammarâ€™ for data manipulation.&lt;/span&gt;&lt;/p&gt;
&lt;p align=&quot;center&quot; style=&quot;-qt-paragraph-type:empty; margin-top:0px; margin-bottom:0px; margin-left:0px; margin-right:0px; -qt-block-indent:0; text-indent:0px; font-family:'sans-serif'; font-size:32pt; font-weight:600; color:#ffffff;&quot;&gt;&lt;br /&gt;&lt;/p&gt;&lt;/body&gt;&lt;/html&gt;</property>
      <property name="shotcut:animIn">00:00:00.000</property>
      <property name="shotcut:animOut">00:00:00.000</property>
    </filter>
  </producer>
  <producer id="producer28" in="00:00:00.000" out="00:00:44.833">
    <property name="length">00:00:44.867</property>
    <property name="eof">pause</property>
    <property name="resource">/Users/pgrylls/University of Southampton/SoftCarp/data-analysis-and-visualisation/Videos/Day2/Clips/2020-11-19 14-13-15.mkv</property>
    <property name="audio_index">1</property>
    <property name="video_index">0</property>
    <property name="mute_on_pause">0</property>
    <property name="mlt_service">avformat-novalidate</property>
    <property name="seekable">1</property>
    <property name="aspect_ratio">1</property>
    <property name="creation_time">2020-11-19T14:14:00</property>
    <property name="shotcut:hash">f7b9d6597bdd3a4c36bba54b0439f7af</property>
    <property name="global_feed">1</property>
    <property name="xml">was here</property>
    <property name="ignore_points">0</property>
    <property name="shotcut:caption">2020-11-19 14-13-15.mkv</property>
    <filter id="filter13" in="00:00:26.133" out="00:00:31.967">
      <property name="argument"></property>
      <property name="geometry">312 624 968 96 1</property>
      <property name="family">Sans</property>
      <property name="size">48</property>
      <property name="weight">400</property>
      <property name="style">normal</property>
      <property name="fgcolour">0x000000ff</property>
      <property name="bgcolour">#00000000</property>
      <property name="olcolour">0x00000000</property>
      <property name="pad">0</property>
      <property name="halign">left</property>
      <property name="valign">top</property>
      <property name="outline">0</property>
      <property name="pixel_ratio">1</property>
      <property name="mlt_service">qtext</property>
      <property name="shotcut:filter">richText</property>
      <property name="html">&lt;!DOCTYPE HTML PUBLIC &quot;-//W3C//DTD HTML 4.0//EN&quot; &quot;http://www.w3.org/TR/REC-html40/strict.dtd&quot;&gt;
&lt;html&gt;&lt;head&gt;&lt;meta name=&quot;qrichtext&quot; content=&quot;1&quot; /&gt;&lt;style type=&quot;text/css&quot;&gt;
p, li { white-space: pre-wrap; }
&lt;/style&gt;&lt;/head&gt;&lt;body style=&quot; font-family:'.AppleSystemUIFont'; font-size:13pt; font-weight:400; font-style:normal;&quot;&gt;
&lt;p align=&quot;center&quot; style=&quot; margin-top:0px; margin-bottom:0px; margin-left:0px; margin-right:0px; -qt-block-indent:0; text-indent:0px;&quot;&gt;&lt;span style=&quot; font-family:'sans-serif'; font-size:32pt; font-weight:600; color:#ffffff;&quot;&gt;â€˜tidyrâ€™ on the package webpage describe their goal as helping you create tidy data&lt;/span&gt;&lt;/p&gt;
&lt;p align=&quot;center&quot; style=&quot;-qt-paragraph-type:empty; margin-top:0px; margin-bottom:0px; margin-left:0px; margin-right:0px; -qt-block-indent:0; text-indent:0px; font-family:'sans-serif'; font-size:32pt; font-weight:600; color:#ffffff;&quot;&gt;&lt;br /&gt;&lt;/p&gt;&lt;/body&gt;&lt;/html&gt;</property>
      <property name="shotcut:animIn">00:00:00.000</property>
      <property name="shotcut:animOut">00:00:00.000</property>
    </filter>
  </producer>
  <producer id="producer29" in="00:00:00.000" out="00:00:44.833">
    <property name="length">00:00:44.867</property>
    <property name="eof">pause</property>
    <property name="resource">/Users/pgrylls/University of Southampton/SoftCarp/data-analysis-and-visualisation/Videos/Day2/Clips/2020-11-19 14-13-15.mkv</property>
    <property name="audio_index">1</property>
    <property name="video_index">0</property>
    <property name="mute_on_pause">0</property>
    <property name="mlt_service">avformat-novalidate</property>
    <property name="seekable">1</property>
    <property name="aspect_ratio">1</property>
    <property name="creation_time">2020-11-19T14:14:00</property>
    <property name="shotcut:hash">f7b9d6597bdd3a4c36bba54b0439f7af</property>
    <property name="global_feed">1</property>
    <property name="xml">was here</property>
    <property name="ignore_points">0</property>
    <property name="shotcut:caption">2020-11-19 14-13-15.mkv</property>
    <filter id="filter14" in="00:00:32.000" out="00:00:36.867">
      <property name="argument"></property>
      <property name="geometry">312 624 968 96 1</property>
      <property name="family">Sans</property>
      <property name="size">48</property>
      <property name="weight">400</property>
      <property name="style">normal</property>
      <property name="fgcolour">0x000000ff</property>
      <property name="bgcolour">#00000000</property>
      <property name="olcolour">0x00000000</property>
      <property name="pad">0</property>
      <property name="halign">left</property>
      <property name="valign">top</property>
      <property name="outline">0</property>
      <property name="pixel_ratio">1</property>
      <property name="mlt_service">qtext</property>
      <property name="shotcut:filter">richText</property>
      <property name="html">&lt;!DOCTYPE HTML PUBLIC &quot;-//W3C//DTD HTML 4.0//EN&quot; &quot;http://www.w3.org/TR/REC-html40/strict.dtd&quot;&gt;
&lt;html&gt;&lt;head&gt;&lt;meta name=&quot;qrichtext&quot; content=&quot;1&quot; /&gt;&lt;style type=&quot;text/css&quot;&gt;
p, li { white-space: pre-wrap; }
&lt;/style&gt;&lt;/head&gt;&lt;body style=&quot; font-family:'.AppleSystemUIFont'; font-size:13pt; font-weight:400; font-style:normal;&quot;&gt;
&lt;p align=&quot;center&quot; style=&quot; margin-top:0px; margin-bottom:0px; margin-left:0px; margin-right:0px; -qt-block-indent:0; text-indent:0px;&quot;&gt;&lt;span style=&quot; font-family:'sans-serif'; font-size:32pt; font-weight:600; color:#ffffff;&quot;&gt;where, every column is a variable every row is an observation and every cell is a single value.&lt;/span&gt;&lt;/p&gt;
&lt;p align=&quot;center&quot; style=&quot;-qt-paragraph-type:empty; margin-top:0px; margin-bottom:0px; margin-left:0px; margin-right:0px; -qt-block-indent:0; text-indent:0px; font-family:'sans-serif'; font-size:32pt; font-weight:600; color:#ffffff;&quot;&gt;&lt;br /&gt;&lt;/p&gt;&lt;/body&gt;&lt;/html&gt;</property>
      <property name="shotcut:animIn">00:00:00.000</property>
      <property name="shotcut:animOut">00:00:00.000</property>
    </filter>
  </producer>
  <producer id="producer30" in="00:00:00.000" out="00:00:44.833">
    <property name="length">00:00:44.867</property>
    <property name="eof">pause</property>
    <property name="resource">/Users/pgrylls/University of Southampton/SoftCarp/data-analysis-and-visualisation/Videos/Day2/Clips/2020-11-19 14-13-15.mkv</property>
    <property name="audio_index">1</property>
    <property name="video_index">0</property>
    <property name="mute_on_pause">0</property>
    <property name="mlt_service">avformat-novalidate</property>
    <property name="seekable">1</property>
    <property name="aspect_ratio">1</property>
    <property name="creation_time">2020-11-19T14:14:00</property>
    <property name="shotcut:hash">f7b9d6597bdd3a4c36bba54b0439f7af</property>
    <property name="global_feed">1</property>
    <property name="xml">was here</property>
    <property name="ignore_points">0</property>
    <property name="shotcut:caption">2020-11-19 14-13-15.mkv</property>
    <filter id="filter15" in="00:00:36.900" out="00:00:44.100">
      <property name="argument"></property>
      <property name="geometry">312 624 968 96 1</property>
      <property name="family">Sans</property>
      <property name="size">48</property>
      <property name="weight">400</property>
      <property name="style">normal</property>
      <property name="fgcolour">0x000000ff</property>
      <property name="bgcolour">#00000000</property>
      <property name="olcolour">0x00000000</property>
      <property name="pad">0</property>
      <property name="halign">left</property>
      <property name="valign">top</property>
      <property name="outline">0</property>
      <property name="pixel_ratio">1</property>
      <property name="mlt_service">qtext</property>
      <property name="shotcut:filter">richText</property>
      <property name="html">&lt;!DOCTYPE HTML PUBLIC &quot;-//W3C//DTD HTML 4.0//EN&quot; &quot;http://www.w3.org/TR/REC-html40/strict.dtd&quot;&gt;
&lt;html&gt;&lt;head&gt;&lt;meta name=&quot;qrichtext&quot; content=&quot;1&quot; /&gt;&lt;style type=&quot;text/css&quot;&gt;
p, li { white-space: pre-wrap; }
&lt;/style&gt;&lt;/head&gt;&lt;body style=&quot; font-family:'.AppleSystemUIFont'; font-size:13pt; font-weight:400; font-style:normal;&quot;&gt;
&lt;p align=&quot;center&quot; style=&quot; margin-top:0px; margin-bottom:0px; margin-left:0px; margin-right:0px; -qt-block-indent:0; text-indent:0px;&quot;&gt;&lt;span style=&quot; font-family:'sans-serif'; font-size:32pt; font-weight:600; color:#ffffff;&quot;&gt;Additionally, we discuss pipes a very useful tool for passing data from one function to the next.&lt;/span&gt;&lt;/p&gt;
&lt;p align=&quot;center&quot; style=&quot;-qt-paragraph-type:empty; margin-top:0px; margin-bottom:0px; margin-left:0px; margin-right:0px; -qt-block-indent:0; text-indent:0px; font-family:'sans-serif'; font-size:32pt; font-weight:600; color:#ffffff;&quot;&gt;&lt;br /&gt;&lt;/p&gt;&lt;/body&gt;&lt;/html&gt;</property>
      <property name="shotcut:animIn">00:00:00.000</property>
      <property name="shotcut:animOut">00:00:00.000</property>
    </filter>
  </producer>
  <producer id="producer31" in="00:00:00.000" out="00:00:33.267">
    <property name="length">00:00:33.300</property>
    <property name="eof">pause</property>
    <property name="resource">/Users/pgrylls/University of Southampton/SoftCarp/data-analysis-and-visualisation/Videos/Day2/Clips/2020-11-19 14-52-52.mkv</property>
    <property name="audio_index">1</property>
    <property name="video_index">0</property>
    <property name="mute_on_pause">0</property>
    <property name="mlt_service">avformat-novalidate</property>
    <property name="seekable">1</property>
    <property name="aspect_ratio">1</property>
    <property name="creation_time">2020-11-19T14:53:26</property>
    <property name="global_feed">1</property>
    <property name="xml">was here</property>
    <property name="shotcut:hash">c9133b706a21c5874795e56848ed6af5</property>
    <property name="shotcut:caption">2020-11-19 14-52-52.mkv</property>
    <filter id="filter16" out="00:00:05.033">
      <property name="argument"></property>
      <property name="geometry">312 624 968 96 1</property>
      <property name="family">Sans</property>
      <property name="size">48</property>
      <property name="weight">400</property>
      <property name="style">normal</property>
      <property name="fgcolour">0x000000ff</property>
      <property name="bgcolour">#00000000</property>
      <property name="olcolour">0x00000000</property>
      <property name="pad">0</property>
      <property name="halign">left</property>
      <property name="valign">top</property>
      <property name="outline">0</property>
      <property name="pixel_ratio">1</property>
      <property name="mlt_service">qtext</property>
      <property name="shotcut:filter">richText</property>
      <property name="html">&lt;!DOCTYPE HTML PUBLIC &quot;-//W3C//DTD HTML 4.0//EN&quot; &quot;http://www.w3.org/TR/REC-html40/strict.dtd&quot;&gt;
&lt;html&gt;&lt;head&gt;&lt;meta name=&quot;qrichtext&quot; content=&quot;1&quot; /&gt;&lt;style type=&quot;text/css&quot;&gt;
p, li { white-space: pre-wrap; }
&lt;/style&gt;&lt;/head&gt;&lt;body style=&quot; font-family:'.AppleSystemUIFont'; font-size:13pt; font-weight:400; font-style:normal;&quot;&gt;
&lt;p align=&quot;center&quot; style=&quot; margin-top:0px; margin-bottom:0px; margin-left:0px; margin-right:0px; -qt-block-indent:0; text-indent:0px;&quot;&gt;&lt;span style=&quot; font-family:'sans-serif'; font-size:32pt; font-weight:600; color:#ffffff;&quot;&gt;To make groupings and comparisons R needs to categorise data. &lt;/span&gt;&lt;/p&gt;
&lt;p align=&quot;center&quot; style=&quot;-qt-paragraph-type:empty; margin-top:0px; margin-bottom:0px; margin-left:0px; margin-right:0px; -qt-block-indent:0; text-indent:0px; font-family:'sans-serif'; font-size:32pt; font-weight:600; color:#ffffff;&quot;&gt;&lt;br /&gt;&lt;/p&gt;&lt;/body&gt;&lt;/html&gt;</property>
      <property name="shotcut:animIn">00:00:00.000</property>
      <property name="shotcut:animOut">00:00:00.000</property>
    </filter>
  </producer>
  <producer id="producer32" in="00:00:00.000" out="00:00:33.267">
    <property name="length">00:00:33.300</property>
    <property name="eof">pause</property>
    <property name="resource">/Users/pgrylls/University of Southampton/SoftCarp/data-analysis-and-visualisation/Videos/Day2/Clips/2020-11-19 14-52-52.mkv</property>
    <property name="audio_index">1</property>
    <property name="video_index">0</property>
    <property name="mute_on_pause">0</property>
    <property name="mlt_service">avformat-novalidate</property>
    <property name="seekable">1</property>
    <property name="aspect_ratio">1</property>
    <property name="creation_time">2020-11-19T14:53:26</property>
    <property name="global_feed">1</property>
    <property name="xml">was here</property>
    <property name="shotcut:hash">c9133b706a21c5874795e56848ed6af5</property>
    <property name="shotcut:caption">2020-11-19 14-52-52.mkv</property>
    <filter id="filter17" in="00:00:05.067" out="00:00:11.300">
      <property name="argument"></property>
      <property name="geometry">312 624 968 96 1</property>
      <property name="family">Sans</property>
      <property name="size">48</property>
      <property name="weight">400</property>
      <property name="style">normal</property>
      <property name="fgcolour">0x000000ff</property>
      <property name="bgcolour">#00000000</property>
      <property name="olcolour">0x00000000</property>
      <property name="pad">0</property>
      <property name="halign">left</property>
      <property name="valign">top</property>
      <property name="outline">0</property>
      <property name="pixel_ratio">1</property>
      <property name="mlt_service">qtext</property>
      <property name="shotcut:filter">richText</property>
      <property name="html">&lt;!DOCTYPE HTML PUBLIC &quot;-//W3C//DTD HTML 4.0//EN&quot; &quot;http://www.w3.org/TR/REC-html40/strict.dtd&quot;&gt;
&lt;html&gt;&lt;head&gt;&lt;meta name=&quot;qrichtext&quot; content=&quot;1&quot; /&gt;&lt;style type=&quot;text/css&quot;&gt;
p, li { white-space: pre-wrap; }
&lt;/style&gt;&lt;/head&gt;&lt;body style=&quot; font-family:'.AppleSystemUIFont'; font-size:13pt; font-weight:400; font-style:normal;&quot;&gt;
&lt;p align=&quot;center&quot; style=&quot; margin-top:0px; margin-bottom:0px; margin-left:0px; margin-right:0px; -qt-block-indent:0; text-indent:0px;&quot;&gt;&lt;span style=&quot; font-family:'sans-serif'; font-size:32pt; font-weight:600; color:#ffffff;&quot;&gt;For this R has factors, which are incredibly useful for data analysis where categorical data is concerned. &lt;/span&gt;&lt;/p&gt;
&lt;p align=&quot;center&quot; style=&quot;-qt-paragraph-type:empty; margin-top:0px; margin-bottom:0px; margin-left:0px; margin-right:0px; -qt-block-indent:0; text-indent:0px; font-family:'sans-serif'; font-size:32pt; font-weight:600; color:#ffffff;&quot;&gt;&lt;br /&gt;&lt;/p&gt;&lt;/body&gt;&lt;/html&gt;</property>
      <property name="shotcut:animIn">00:00:00.000</property>
      <property name="shotcut:animOut">00:00:00.000</property>
    </filter>
  </producer>
  <producer id="producer33" in="00:00:00.000" out="00:00:33.267">
    <property name="length">00:00:33.300</property>
    <property name="eof">pause</property>
    <property name="resource">/Users/pgrylls/University of Southampton/SoftCarp/data-analysis-and-visualisation/Videos/Day2/Clips/2020-11-19 14-52-52.mkv</property>
    <property name="audio_index">1</property>
    <property name="video_index">0</property>
    <property name="mute_on_pause">0</property>
    <property name="mlt_service">avformat-novalidate</property>
    <property name="seekable">1</property>
    <property name="aspect_ratio">1</property>
    <property name="creation_time">2020-11-19T14:53:26</property>
    <property name="global_feed">1</property>
    <property name="xml">was here</property>
    <property name="shotcut:hash">c9133b706a21c5874795e56848ed6af5</property>
    <property name="shotcut:caption">2020-11-19 14-52-52.mkv</property>
    <filter id="filter18" in="00:00:11.333" out="00:00:17.533">
      <property name="argument"></property>
      <property name="geometry">312 624 968 96 1</property>
      <property name="family">Sans</property>
      <property name="size">48</property>
      <property name="weight">400</property>
      <property name="style">normal</property>
      <property name="fgcolour">0x000000ff</property>
      <property name="bgcolour">#00000000</property>
      <property name="olcolour">0x00000000</property>
      <property name="pad">0</property>
      <property name="halign">left</property>
      <property name="valign">top</property>
      <property name="outline">0</property>
      <property name="pixel_ratio">1</property>
      <property name="mlt_service">qtext</property>
      <property name="shotcut:filter">richText</property>
      <property name="html">&lt;!DOCTYPE HTML PUBLIC &quot;-//W3C//DTD HTML 4.0//EN&quot; &quot;http://www.w3.org/TR/REC-html40/strict.dtd&quot;&gt;
&lt;html&gt;&lt;head&gt;&lt;meta name=&quot;qrichtext&quot; content=&quot;1&quot; /&gt;&lt;style type=&quot;text/css&quot;&gt;
p, li { white-space: pre-wrap; }
&lt;/style&gt;&lt;/head&gt;&lt;body style=&quot; font-family:'.AppleSystemUIFont'; font-size:13pt; font-weight:400; font-style:normal;&quot;&gt;
&lt;p align=&quot;center&quot; style=&quot; margin-top:0px; margin-bottom:0px; margin-left:0px; margin-right:0px; -qt-block-indent:0; text-indent:0px;&quot;&gt;&lt;span style=&quot; font-family:'sans-serif'; font-size:32pt; font-weight:600; color:#ffffff;&quot;&gt;R can be instructed to convert strings that describe data into a datatype called factors. &lt;/span&gt;&lt;/p&gt;
&lt;p align=&quot;center&quot; style=&quot;-qt-paragraph-type:empty; margin-top:0px; margin-bottom:0px; margin-left:0px; margin-right:0px; -qt-block-indent:0; text-indent:0px; font-family:'sans-serif'; font-size:32pt; font-weight:600; color:#ffffff;&quot;&gt;&lt;br /&gt;&lt;/p&gt;&lt;/body&gt;&lt;/html&gt;</property>
      <property name="shotcut:animIn">00:00:00.000</property>
      <property name="shotcut:animOut">00:00:00.000</property>
    </filter>
  </producer>
  <producer id="producer34" in="00:00:00.000" out="00:00:33.267">
    <property name="length">00:00:33.300</property>
    <property name="eof">pause</property>
    <property name="resource">/Users/pgrylls/University of Southampton/SoftCarp/data-analysis-and-visualisation/Videos/Day2/Clips/2020-11-19 14-52-52.mkv</property>
    <property name="audio_index">1</property>
    <property name="video_index">0</property>
    <property name="mute_on_pause">0</property>
    <property name="mlt_service">avformat-novalidate</property>
    <property name="seekable">1</property>
    <property name="aspect_ratio">1</property>
    <property name="creation_time">2020-11-19T14:53:26</property>
    <property name="global_feed">1</property>
    <property name="xml">was here</property>
    <property name="shotcut:hash">c9133b706a21c5874795e56848ed6af5</property>
    <property name="shotcut:caption">2020-11-19 14-52-52.mkv</property>
    <filter id="filter19" in="00:00:17.567" out="00:00:23.000">
      <property name="argument"></property>
      <property name="geometry">312 624 968 96 1</property>
      <property name="family">Sans</property>
      <property name="size">48</property>
      <property name="weight">400</property>
      <property name="style">normal</property>
      <property name="fgcolour">0x000000ff</property>
      <property name="bgcolour">#00000000</property>
      <property name="olcolour">0x00000000</property>
      <property name="pad">0</property>
      <property name="halign">left</property>
      <property name="valign">top</property>
      <property name="outline">0</property>
      <property name="pixel_ratio">1</property>
      <property name="mlt_service">qtext</property>
      <property name="shotcut:filter">richText</property>
      <property name="html">&lt;!DOCTYPE HTML PUBLIC &quot;-//W3C//DTD HTML 4.0//EN&quot; &quot;http://www.w3.org/TR/REC-html40/strict.dtd&quot;&gt;
&lt;html&gt;&lt;head&gt;&lt;meta name=&quot;qrichtext&quot; content=&quot;1&quot; /&gt;&lt;style type=&quot;text/css&quot;&gt;
p, li { white-space: pre-wrap; }
&lt;/style&gt;&lt;/head&gt;&lt;body style=&quot; font-family:'.AppleSystemUIFont'; font-size:13pt; font-weight:400; font-style:normal;&quot;&gt;
&lt;p align=&quot;center&quot; style=&quot; margin-top:0px; margin-bottom:0px; margin-left:0px; margin-right:0px; -qt-block-indent:0; text-indent:0px;&quot;&gt;&lt;span style=&quot; font-family:'sans-serif'; font-size:32pt; font-weight:600; color:#ffffff;&quot;&gt;A column with datatype factor can only contain elements that are one of the named factors. &lt;/span&gt;&lt;/p&gt;
&lt;p align=&quot;center&quot; style=&quot;-qt-paragraph-type:empty; margin-top:0px; margin-bottom:0px; margin-left:0px; margin-right:0px; -qt-block-indent:0; text-indent:0px; font-family:'sans-serif'; font-size:32pt; font-weight:600; color:#ffffff;&quot;&gt;&lt;br /&gt;&lt;/p&gt;&lt;/body&gt;&lt;/html&gt;</property>
      <property name="shotcut:animIn">00:00:00.000</property>
      <property name="shotcut:animOut">00:00:00.000</property>
    </filter>
  </producer>
  <producer id="producer35" in="00:00:00.000" out="00:00:33.267">
    <property name="length">00:00:33.300</property>
    <property name="eof">pause</property>
    <property name="resource">/Users/pgrylls/University of Southampton/SoftCarp/data-analysis-and-visualisation/Videos/Day2/Clips/2020-11-19 14-52-52.mkv</property>
    <property name="audio_index">1</property>
    <property name="video_index">0</property>
    <property name="mute_on_pause">0</property>
    <property name="mlt_service">avformat-novalidate</property>
    <property name="seekable">1</property>
    <property name="aspect_ratio">1</property>
    <property name="creation_time">2020-11-19T14:53:26</property>
    <property name="global_feed">1</property>
    <property name="xml">was here</property>
    <property name="shotcut:hash">c9133b706a21c5874795e56848ed6af5</property>
    <property name="shotcut:caption">2020-11-19 14-52-52.mkv</property>
    <filter id="filter20" in="00:00:23.033" out="00:00:28.267">
      <property name="argument"></property>
      <property name="geometry">312 624 968 96 1</property>
      <property name="family">Sans</property>
      <property name="size">48</property>
      <property name="weight">400</property>
      <property name="style">normal</property>
      <property name="fgcolour">0x000000ff</property>
      <property name="bgcolour">#00000000</property>
      <property name="olcolour">0x00000000</property>
      <property name="pad">0</property>
      <property name="halign">left</property>
      <property name="valign">top</property>
      <property name="outline">0</property>
      <property name="pixel_ratio">1</property>
      <property name="mlt_service">qtext</property>
      <property name="shotcut:filter">richText</property>
      <property name="html">&lt;!DOCTYPE HTML PUBLIC &quot;-//W3C//DTD HTML 4.0//EN&quot; &quot;http://www.w3.org/TR/REC-html40/strict.dtd&quot;&gt;
&lt;html&gt;&lt;head&gt;&lt;meta name=&quot;qrichtext&quot; content=&quot;1&quot; /&gt;&lt;style type=&quot;text/css&quot;&gt;
p, li { white-space: pre-wrap; }
&lt;/style&gt;&lt;/head&gt;&lt;body style=&quot; font-family:'.AppleSystemUIFont'; font-size:13pt; font-weight:400; font-style:normal;&quot;&gt;
&lt;p align=&quot;center&quot; style=&quot; margin-top:0px; margin-bottom:0px; margin-left:0px; margin-right:0px; -qt-block-indent:0; text-indent:0px;&quot;&gt;&lt;span style=&quot; font-family:'sans-serif'; font-size:32pt; font-weight:600; color:#ffffff;&quot;&gt;Once we have set up factors for a column we can use them to order or group our data. &lt;/span&gt;&lt;/p&gt;
&lt;p align=&quot;center&quot; style=&quot;-qt-paragraph-type:empty; margin-top:0px; margin-bottom:0px; margin-left:0px; margin-right:0px; -qt-block-indent:0; text-indent:0px; font-family:'sans-serif'; font-size:32pt; font-weight:600; color:#ffffff;&quot;&gt;&lt;br /&gt;&lt;/p&gt;&lt;/body&gt;&lt;/html&gt;</property>
      <property name="shotcut:animIn">00:00:00.000</property>
      <property name="shotcut:animOut">00:00:00.000</property>
    </filter>
  </producer>
  <producer id="producer36" in="00:00:00.000" out="00:00:33.267">
    <property name="length">00:00:33.300</property>
    <property name="eof">pause</property>
    <property name="resource">/Users/pgrylls/University of Southampton/SoftCarp/data-analysis-and-visualisation/Videos/Day2/Clips/2020-11-19 14-52-52.mkv</property>
    <property name="audio_index">1</property>
    <property name="video_index">0</property>
    <property name="mute_on_pause">0</property>
    <property name="mlt_service">avformat-novalidate</property>
    <property name="seekable">1</property>
    <property name="aspect_ratio">1</property>
    <property name="creation_time">2020-11-19T14:53:26</property>
    <property name="global_feed">1</property>
    <property name="xml">was here</property>
    <property name="shotcut:hash">c9133b706a21c5874795e56848ed6af5</property>
    <property name="shotcut:caption">2020-11-19 14-52-52.mkv</property>
    <filter id="filter21" in="00:00:28.300" out="00:00:32.033">
      <property name="argument"></property>
      <property name="geometry">312 624 968 96 1</property>
      <property name="family">Sans</property>
      <property name="size">48</property>
      <property name="weight">400</property>
      <property name="style">normal</property>
      <property name="fgcolour">0x000000ff</property>
      <property name="bgcolour">#00000000</property>
      <property name="olcolour">0x00000000</property>
      <property name="pad">0</property>
      <property name="halign">left</property>
      <property name="valign">top</property>
      <property name="outline">0</property>
      <property name="pixel_ratio">1</property>
      <property name="mlt_service">qtext</property>
      <property name="shotcut:filter">richText</property>
      <property name="html">&lt;!DOCTYPE HTML PUBLIC &quot;-//W3C//DTD HTML 4.0//EN&quot; &quot;http://www.w3.org/TR/REC-html40/strict.dtd&quot;&gt;
&lt;html&gt;&lt;head&gt;&lt;meta name=&quot;qrichtext&quot; content=&quot;1&quot; /&gt;&lt;style type=&quot;text/css&quot;&gt;
p, li { white-space: pre-wrap; }
&lt;/style&gt;&lt;/head&gt;&lt;body style=&quot; font-family:'.AppleSystemUIFont'; font-size:13pt; font-weight:400; font-style:normal;&quot;&gt;
&lt;p align=&quot;center&quot; style=&quot; margin-top:0px; margin-bottom:0px; margin-left:0px; margin-right:0px; -qt-block-indent:0; text-indent:0px;&quot;&gt;&lt;span style=&quot; font-family:'Calibri'; font-size:32pt; font-weight:600; color:#ffffff;&quot;&gt;We can also rename the factors to something more descriptive.&lt;/span&gt;&lt;span style=&quot; font-size:32pt; font-weight:600; color:#ffffff;&quot;&gt; &lt;/span&gt;&lt;/p&gt;&lt;/body&gt;&lt;/html&gt;</property>
      <property name="shotcut:animIn">00:00:00.000</property>
      <property name="shotcut:animOut">00:00:00.000</property>
    </filter>
  </producer>
  <producer id="producer37" in="00:00:00.000" out="00:00:13.367">
    <property name="length">00:00:13.400</property>
    <property name="eof">pause</property>
    <property name="resource">/Users/pgrylls/University of Southampton/SoftCarp/data-analysis-and-visualisation/Videos/Day2/Clips/2020-11-19 14-21-30.mkv</property>
    <property name="audio_index">1</property>
    <property name="video_index">0</property>
    <property name="mute_on_pause">0</property>
    <property name="mlt_service">avformat-novalidate</property>
    <property name="seekable">1</property>
    <property name="aspect_ratio">1</property>
    <property name="creation_time">2020-11-19T14:21:44</property>
    <property name="shotcut:hash">9b925b002bb7c3a4c2d2385f931c5fbc</property>
    <property name="global_feed">1</property>
    <property name="xml">was here</property>
    <property name="ignore_points">0</property>
    <property name="shotcut:caption">2020-11-19 14-21-30.mkv</property>
    <filter id="filter22" out="00:00:06.633">
      <property name="argument"></property>
      <property name="geometry">312 624 968 96 1</property>
      <property name="family">Sans</property>
      <property name="size">48</property>
      <property name="weight">400</property>
      <property name="style">normal</property>
      <property name="fgcolour">0x000000ff</property>
      <property name="bgcolour">#00000000</property>
      <property name="olcolour">0x00000000</property>
      <property name="pad">0</property>
      <property name="halign">left</property>
      <property name="valign">top</property>
      <property name="outline">0</property>
      <property name="pixel_ratio">1</property>
      <property name="mlt_service">qtext</property>
      <property name="shotcut:filter">richText</property>
      <property name="html">&lt;!DOCTYPE HTML PUBLIC &quot;-//W3C//DTD HTML 4.0//EN&quot; &quot;http://www.w3.org/TR/REC-html40/strict.dtd&quot;&gt;
&lt;html&gt;&lt;head&gt;&lt;meta name=&quot;qrichtext&quot; content=&quot;1&quot; /&gt;&lt;style type=&quot;text/css&quot;&gt;
p, li { white-space: pre-wrap; }
&lt;/style&gt;&lt;/head&gt;&lt;body style=&quot; font-family:'.AppleSystemUIFont'; font-size:13pt; font-weight:400; font-style:normal;&quot;&gt;
&lt;p align=&quot;center&quot; style=&quot; margin-top:0px; margin-bottom:0px; margin-left:0px; margin-right:0px; -qt-block-indent:0; text-indent:0px;&quot;&gt;&lt;span style=&quot; font-family:'sans-serif'; font-size:32pt; font-weight:600; color:#ffffff;&quot;&gt;A pipe is a tool we use to take the output of one function and send it directly to the next function.&lt;/span&gt;&lt;/p&gt;
&lt;p align=&quot;center&quot; style=&quot;-qt-paragraph-type:empty; margin-top:0px; margin-bottom:0px; margin-left:0px; margin-right:0px; -qt-block-indent:0; text-indent:0px; font-family:'sans-serif'; font-size:32pt; font-weight:600; color:#ffffff;&quot;&gt;&lt;br /&gt;&lt;/p&gt;&lt;/body&gt;&lt;/html&gt;</property>
      <property name="shotcut:animIn">00:00:00.000</property>
      <property name="shotcut:animOut">00:00:00.000</property>
    </filter>
  </producer>
  <producer id="producer38" in="00:00:00.000" out="00:00:13.367">
    <property name="length">00:00:13.400</property>
    <property name="eof">pause</property>
    <property name="resource">/Users/pgrylls/University of Southampton/SoftCarp/data-analysis-and-visualisation/Videos/Day2/Clips/2020-11-19 14-21-30.mkv</property>
    <property name="audio_index">1</property>
    <property name="video_index">0</property>
    <property name="mute_on_pause">0</property>
    <property name="mlt_service">avformat-novalidate</property>
    <property name="seekable">1</property>
    <property name="aspect_ratio">1</property>
    <property name="creation_time">2020-11-19T14:21:44</property>
    <property name="shotcut:hash">9b925b002bb7c3a4c2d2385f931c5fbc</property>
    <property name="global_feed">1</property>
    <property name="xml">was here</property>
    <property name="ignore_points">1</property>
    <property name="shotcut:caption">2020-11-19 14-21-30.mkv</property>
    <filter id="filter23" in="00:00:06.667" out="00:00:13.367">
      <property name="argument"></property>
      <property name="geometry">312 624 968 96 1</property>
      <property name="family">Sans</property>
      <property name="size">48</property>
      <property name="weight">400</property>
      <property name="style">normal</property>
      <property name="fgcolour">0x000000ff</property>
      <property name="bgcolour">#00000000</property>
      <property name="olcolour">0x00000000</property>
      <property name="pad">0</property>
      <property name="halign">left</property>
      <property name="valign">top</property>
      <property name="outline">0</property>
      <property name="pixel_ratio">1</property>
      <property name="mlt_service">qtext</property>
      <property name="shotcut:filter">richText</property>
      <property name="html">&lt;!DOCTYPE HTML PUBLIC &quot;-//W3C//DTD HTML 4.0//EN&quot; &quot;http://www.w3.org/TR/REC-html40/strict.dtd&quot;&gt;
&lt;html&gt;&lt;head&gt;&lt;meta name=&quot;qrichtext&quot; content=&quot;1&quot; /&gt;&lt;style type=&quot;text/css&quot;&gt;
p, li { white-space: pre-wrap; }
&lt;/style&gt;&lt;/head&gt;&lt;body style=&quot; font-family:'.AppleSystemUIFont'; font-size:13pt; font-weight:400; font-style:normal;&quot;&gt;
&lt;p align=&quot;center&quot; style=&quot; margin-top:0px; margin-bottom:0px; margin-left:0px; margin-right:0px; -qt-block-indent:0; text-indent:0px;&quot;&gt;&lt;span style=&quot; font-family:'sans-serif'; font-size:32pt; font-weight:600; color:#ffffff;&quot;&gt;This may seem simple but we will see this bit of notation can make your codes much clearer. &lt;/span&gt;&lt;/p&gt;&lt;/body&gt;&lt;/html&gt;</property>
      <property name="shotcut:animIn">00:00:00.000</property>
      <property name="shotcut:animOut">00:00:00.000</property>
    </filter>
  </producer>
  <producer id="producer39" in="00:00:00.000" out="00:00:21.033">
    <property name="length">00:00:21.067</property>
    <property name="eof">pause</property>
    <property name="resource">/Users/pgrylls/University of Southampton/SoftCarp/data-analysis-and-visualisation/Videos/Day2/Clips/2020-11-19 14-21-57.mkv</property>
    <property name="audio_index">1</property>
    <property name="video_index">0</property>
    <property name="mute_on_pause">0</property>
    <property name="mlt_service">avformat-novalidate</property>
    <property name="seekable">1</property>
    <property name="aspect_ratio">1</property>
    <property name="creation_time">2020-11-19T14:22:19</property>
    <property name="shotcut:hash">c0c3e95681e8d6c4684ec3b1e1eda2f8</property>
    <property name="global_feed">1</property>
    <property name="xml">was here</property>
    <property name="ignore_points">0</property>
    <property name="shotcut:caption">2020-11-19 14-21-57.mkv</property>
    <filter id="filter24" out="00:00:06.167">
      <property name="argument"></property>
      <property name="geometry">312 624 968 96 1</property>
      <property name="family">Sans</property>
      <property name="size">48</property>
      <property name="weight">400</property>
      <property name="style">normal</property>
      <property name="fgcolour">0x000000ff</property>
      <property name="bgcolour">#00000000</property>
      <property name="olcolour">0x00000000</property>
      <property name="pad">0</property>
      <property name="halign">left</property>
      <property name="valign">top</property>
      <property name="outline">0</property>
      <property name="pixel_ratio">1</property>
      <property name="mlt_service">qtext</property>
      <property name="shotcut:filter">richText</property>
      <property name="html">&lt;!DOCTYPE HTML PUBLIC &quot;-//W3C//DTD HTML 4.0//EN&quot; &quot;http://www.w3.org/TR/REC-html40/strict.dtd&quot;&gt;
&lt;html&gt;&lt;head&gt;&lt;meta name=&quot;qrichtext&quot; content=&quot;1&quot; /&gt;&lt;style type=&quot;text/css&quot;&gt;
p, li { white-space: pre-wrap; }
&lt;/style&gt;&lt;/head&gt;&lt;body style=&quot; font-family:'.AppleSystemUIFont'; font-size:13pt; font-weight:400; font-style:normal;&quot;&gt;
&lt;p align=&quot;center&quot; style=&quot; margin-top:0px; margin-bottom:0px; margin-left:0px; margin-right:0px; -qt-block-indent:0; text-indent:0px;&quot;&gt;&lt;span style=&quot; font-family:'sans-serif'; font-size:32pt; font-weight:600; color:#ffffff;&quot;&gt;Now we move on to the main topics of todays lesson dplyr and tidyr. &lt;/span&gt;&lt;/p&gt;
&lt;p align=&quot;center&quot; style=&quot;-qt-paragraph-type:empty; margin-top:0px; margin-bottom:0px; margin-left:0px; margin-right:0px; -qt-block-indent:0; text-indent:0px; font-family:'sans-serif'; font-size:32pt; font-weight:600; color:#ffffff;&quot;&gt;&lt;br /&gt;&lt;/p&gt;&lt;/body&gt;&lt;/html&gt;</property>
      <property name="shotcut:animIn">00:00:00.000</property>
      <property name="shotcut:animOut">00:00:00.000</property>
    </filter>
  </producer>
  <producer id="producer40" in="00:00:00.000" out="00:00:21.033">
    <property name="length">00:00:21.067</property>
    <property name="eof">pause</property>
    <property name="resource">/Users/pgrylls/University of Southampton/SoftCarp/data-analysis-and-visualisation/Videos/Day2/Clips/2020-11-19 14-21-57.mkv</property>
    <property name="audio_index">1</property>
    <property name="video_index">0</property>
    <property name="mute_on_pause">0</property>
    <property name="mlt_service">avformat-novalidate</property>
    <property name="seekable">1</property>
    <property name="aspect_ratio">1</property>
    <property name="creation_time">2020-11-19T14:22:19</property>
    <property name="shotcut:hash">c0c3e95681e8d6c4684ec3b1e1eda2f8</property>
    <property name="global_feed">1</property>
    <property name="xml">was here</property>
    <property name="ignore_points">0</property>
    <property name="shotcut:caption">2020-11-19 14-21-57.mkv</property>
    <filter id="filter25" in="00:00:06.200" out="00:00:09.567">
      <property name="argument"></property>
      <property name="geometry">312 624 968 96 1</property>
      <property name="family">Sans</property>
      <property name="size">48</property>
      <property name="weight">400</property>
      <property name="style">normal</property>
      <property name="fgcolour">0x000000ff</property>
      <property name="bgcolour">#00000000</property>
      <property name="olcolour">0x00000000</property>
      <property name="pad">0</property>
      <property name="halign">left</property>
      <property name="valign">top</property>
      <property name="outline">0</property>
      <property name="pixel_ratio">1</property>
      <property name="mlt_service">qtext</property>
      <property name="shotcut:filter">richText</property>
      <property name="html">&lt;!DOCTYPE HTML PUBLIC &quot;-//W3C//DTD HTML 4.0//EN&quot; &quot;http://www.w3.org/TR/REC-html40/strict.dtd&quot;&gt;
&lt;html&gt;&lt;head&gt;&lt;meta name=&quot;qrichtext&quot; content=&quot;1&quot; /&gt;&lt;style type=&quot;text/css&quot;&gt;
p, li { white-space: pre-wrap; }
&lt;/style&gt;&lt;/head&gt;&lt;body style=&quot; font-family:'.AppleSystemUIFont'; font-size:13pt; font-weight:400; font-style:normal;&quot;&gt;
&lt;p align=&quot;center&quot; style=&quot; margin-top:0px; margin-bottom:0px; margin-left:0px; margin-right:0px; -qt-block-indent:0; text-indent:0px;&quot;&gt;&lt;span style=&quot; font-family:'sans-serif'; font-size:32pt; font-weight:600; color:#ffffff;&quot;&gt;These are both packages that are part of tidyverse &lt;/span&gt;&lt;/p&gt;
&lt;p align=&quot;center&quot; style=&quot;-qt-paragraph-type:empty; margin-top:0px; margin-bottom:0px; margin-left:0px; margin-right:0px; -qt-block-indent:0; text-indent:0px; font-family:'sans-serif'; font-size:32pt; font-weight:600; color:#ffffff;&quot;&gt;&lt;br /&gt;&lt;/p&gt;&lt;/body&gt;&lt;/html&gt;</property>
      <property name="shotcut:animIn">00:00:00.000</property>
      <property name="shotcut:animOut">00:00:00.000</property>
    </filter>
  </producer>
  <producer id="producer41" in="00:00:00.000" out="00:00:21.033">
    <property name="length">00:00:21.067</property>
    <property name="eof">pause</property>
    <property name="resource">/Users/pgrylls/University of Southampton/SoftCarp/data-analysis-and-visualisation/Videos/Day2/Clips/2020-11-19 14-21-57.mkv</property>
    <property name="audio_index">1</property>
    <property name="video_index">0</property>
    <property name="mute_on_pause">0</property>
    <property name="mlt_service">avformat-novalidate</property>
    <property name="seekable">1</property>
    <property name="aspect_ratio">1</property>
    <property name="creation_time">2020-11-19T14:22:19</property>
    <property name="shotcut:hash">c0c3e95681e8d6c4684ec3b1e1eda2f8</property>
    <property name="global_feed">1</property>
    <property name="xml">was here</property>
    <property name="ignore_points">0</property>
    <property name="shotcut:caption">2020-11-19 14-21-57.mkv</property>
    <filter id="filter26" in="00:00:09.600" out="00:00:15.967">
      <property name="argument"></property>
      <property name="geometry">312 624 968 96 1</property>
      <property name="family">Sans</property>
      <property name="size">48</property>
      <property name="weight">400</property>
      <property name="style">normal</property>
      <property name="fgcolour">0x000000ff</property>
      <property name="bgcolour">#00000000</property>
      <property name="olcolour">0x00000000</property>
      <property name="pad">0</property>
      <property name="halign">left</property>
      <property name="valign">top</property>
      <property name="outline">0</property>
      <property name="pixel_ratio">1</property>
      <property name="mlt_service">qtext</property>
      <property name="shotcut:filter">richText</property>
      <property name="html">&lt;!DOCTYPE HTML PUBLIC &quot;-//W3C//DTD HTML 4.0//EN&quot; &quot;http://www.w3.org/TR/REC-html40/strict.dtd&quot;&gt;
&lt;html&gt;&lt;head&gt;&lt;meta name=&quot;qrichtext&quot; content=&quot;1&quot; /&gt;&lt;style type=&quot;text/css&quot;&gt;
p, li { white-space: pre-wrap; }
&lt;/style&gt;&lt;/head&gt;&lt;body style=&quot; font-family:'.AppleSystemUIFont'; font-size:13pt; font-weight:400; font-style:normal;&quot;&gt;
&lt;p align=&quot;center&quot; style=&quot; margin-top:0px; margin-bottom:0px; margin-left:0px; margin-right:0px; -qt-block-indent:0; text-indent:0px;&quot;&gt;&lt;span style=&quot; font-family:'sans-serif'; font-size:32pt; font-weight:600; color:#ffffff;&quot;&gt;which self describes as â€œan opinionatedÂ collection of R packagesÂ designed for data science...&amp;quot;&lt;/span&gt;&lt;/p&gt;&lt;/body&gt;&lt;/html&gt;</property>
      <property name="shotcut:animIn">00:00:00.000</property>
      <property name="shotcut:animOut">00:00:00.000</property>
    </filter>
  </producer>
  <producer id="producer42" in="00:00:00.000" out="00:00:21.033">
    <property name="length">00:00:21.067</property>
    <property name="eof">pause</property>
    <property name="resource">/Users/pgrylls/University of Southampton/SoftCarp/data-analysis-and-visualisation/Videos/Day2/Clips/2020-11-19 14-21-57.mkv</property>
    <property name="audio_index">1</property>
    <property name="video_index">0</property>
    <property name="mute_on_pause">0</property>
    <property name="mlt_service">avformat-novalidate</property>
    <property name="seekable">1</property>
    <property name="aspect_ratio">1</property>
    <property name="creation_time">2020-11-19T14:22:19</property>
    <property name="shotcut:hash">c0c3e95681e8d6c4684ec3b1e1eda2f8</property>
    <property name="global_feed">1</property>
    <property name="xml">was here</property>
    <property name="ignore_points">1</property>
    <property name="shotcut:caption">2020-11-19 14-21-57.mkv</property>
    <filter id="filter27" in="00:00:16.000" out="00:00:21.033">
      <property name="argument"></property>
      <property name="geometry">312 624 968 96 1</property>
      <property name="family">Sans</property>
      <property name="size">48</property>
      <property name="weight">400</property>
      <property name="style">normal</property>
      <property name="fgcolour">0x000000ff</property>
      <property name="bgcolour">#00000000</property>
      <property name="olcolour">0x00000000</property>
      <property name="pad">0</property>
      <property name="halign">left</property>
      <property name="valign">top</property>
      <property name="outline">0</property>
      <property name="pixel_ratio">1</property>
      <property name="mlt_service">qtext</property>
      <property name="shotcut:filter">richText</property>
      <property name="html">&lt;!DOCTYPE HTML PUBLIC &quot;-//W3C//DTD HTML 4.0//EN&quot; &quot;http://www.w3.org/TR/REC-html40/strict.dtd&quot;&gt;
&lt;html&gt;&lt;head&gt;&lt;meta name=&quot;qrichtext&quot; content=&quot;1&quot; /&gt;&lt;style type=&quot;text/css&quot;&gt;
p, li { white-space: pre-wrap; }
&lt;/style&gt;&lt;/head&gt;&lt;body style=&quot; font-family:'.AppleSystemUIFont'; font-size:13pt; font-weight:400; font-style:normal;&quot;&gt;
&lt;p align=&quot;center&quot; style=&quot; margin-top:0px; margin-bottom:0px; margin-left:0px; margin-right:0px; -qt-block-indent:0; text-indent:0px;&quot;&gt;&lt;span style=&quot; font-family:'sans-serif'; font-size:32pt; font-weight:600; color:#ffffff;&quot;&gt;&amp;quot;...All packages share an underlying design philosophy, grammar, and data structures&amp;quot;&lt;/span&gt;&lt;/p&gt;&lt;/body&gt;&lt;/html&gt;</property>
      <property name="shotcut:animIn">00:00:00.000</property>
      <property name="shotcut:animOut">00:00:00.000</property>
    </filter>
  </producer>
  <producer id="producer43" in="00:00:00.000" out="00:00:21.167">
    <property name="length">00:00:21.200</property>
    <property name="eof">pause</property>
    <property name="resource">/Users/pgrylls/University of Southampton/SoftCarp/data-analysis-and-visualisation/Videos/Day2/Clips/2020-11-19 14-22-26.mkv</property>
    <property name="audio_index">1</property>
    <property name="video_index">0</property>
    <property name="mute_on_pause">0</property>
    <property name="mlt_service">avformat-novalidate</property>
    <property name="seekable">1</property>
    <property name="aspect_ratio">1</property>
    <property name="creation_time">2020-11-19T14:22:48</property>
    <property name="shotcut:hash">d518e4871da84b190bedbc192da1f51b</property>
    <property name="global_feed">1</property>
    <property name="xml">was here</property>
    <property name="shotcut:caption">2020-11-19 14-22-26.mkv</property>
    <filter id="filter28" out="00:00:05.167">
      <property name="argument"></property>
      <property name="geometry">312 624 968 96 1</property>
      <property name="family">Sans</property>
      <property name="size">48</property>
      <property name="weight">400</property>
      <property name="style">normal</property>
      <property name="fgcolour">0x000000ff</property>
      <property name="bgcolour">#00000000</property>
      <property name="olcolour">0x00000000</property>
      <property name="pad">0</property>
      <property name="halign">left</property>
      <property name="valign">top</property>
      <property name="outline">0</property>
      <property name="pixel_ratio">1</property>
      <property name="mlt_service">qtext</property>
      <property name="shotcut:filter">richText</property>
      <property name="html">&lt;!DOCTYPE HTML PUBLIC &quot;-//W3C//DTD HTML 4.0//EN&quot; &quot;http://www.w3.org/TR/REC-html40/strict.dtd&quot;&gt;
&lt;html&gt;&lt;head&gt;&lt;meta name=&quot;qrichtext&quot; content=&quot;1&quot; /&gt;&lt;style type=&quot;text/css&quot;&gt;
p, li { white-space: pre-wrap; }
&lt;/style&gt;&lt;/head&gt;&lt;body style=&quot; font-family:'.AppleSystemUIFont'; font-size:13pt; font-weight:400; font-style:normal;&quot;&gt;
&lt;p align=&quot;center&quot; style=&quot; margin-top:0px; margin-bottom:0px; margin-left:0px; margin-right:0px; -qt-block-indent:0; text-indent:0px;&quot;&gt;&lt;span style=&quot; font-family:'sans-serif'; font-size:32pt; font-weight:600; color:#ffffff;&quot;&gt;dplyr is described as a grammar of data manipulation&lt;/span&gt;&lt;/p&gt;&lt;/body&gt;&lt;/html&gt;</property>
      <property name="shotcut:animIn">00:00:00.000</property>
      <property name="shotcut:animOut">00:00:00.000</property>
    </filter>
  </producer>
  <producer id="producer44" in="00:00:00.000" out="00:00:21.167">
    <property name="length">00:00:21.200</property>
    <property name="eof">pause</property>
    <property name="resource">/Users/pgrylls/University of Southampton/SoftCarp/data-analysis-and-visualisation/Videos/Day2/Clips/2020-11-19 14-22-26.mkv</property>
    <property name="audio_index">1</property>
    <property name="video_index">0</property>
    <property name="mute_on_pause">0</property>
    <property name="mlt_service">avformat-novalidate</property>
    <property name="seekable">1</property>
    <property name="aspect_ratio">1</property>
    <property name="creation_time">2020-11-19T14:22:48</property>
    <property name="shotcut:hash">d518e4871da84b190bedbc192da1f51b</property>
    <property name="global_feed">1</property>
    <property name="xml">was here</property>
    <property name="shotcut:caption">2020-11-19 14-22-26.mkv</property>
    <filter id="filter29" in="00:00:05.200" out="00:00:10.233">
      <property name="argument"></property>
      <property name="geometry">312 624 968 96 1</property>
      <property name="family">Sans</property>
      <property name="size">48</property>
      <property name="weight">400</property>
      <property name="style">normal</property>
      <property name="fgcolour">0x000000ff</property>
      <property name="bgcolour">#00000000</property>
      <property name="olcolour">0x00000000</property>
      <property name="pad">0</property>
      <property name="halign">left</property>
      <property name="valign">top</property>
      <property name="outline">0</property>
      <property name="pixel_ratio">1</property>
      <property name="mlt_service">qtext</property>
      <property name="shotcut:filter">richText</property>
      <property name="html">&lt;!DOCTYPE HTML PUBLIC &quot;-//W3C//DTD HTML 4.0//EN&quot; &quot;http://www.w3.org/TR/REC-html40/strict.dtd&quot;&gt;
&lt;html&gt;&lt;head&gt;&lt;meta name=&quot;qrichtext&quot; content=&quot;1&quot; /&gt;&lt;style type=&quot;text/css&quot;&gt;
p, li { white-space: pre-wrap; }
&lt;/style&gt;&lt;/head&gt;&lt;body style=&quot; font-family:'.AppleSystemUIFont'; font-size:13pt; font-weight:400; font-style:normal;&quot;&gt;
&lt;p align=&quot;center&quot; style=&quot; margin-top:0px; margin-bottom:0px; margin-left:0px; margin-right:0px; -qt-block-indent:0; text-indent:0px;&quot;&gt;&lt;span style=&quot; font-family:'sans-serif'; font-size:32pt; font-weight:600; color:#ffffff;&quot;&gt;This speaks to tidyverseâ€™s underling design philosophy to create a consistent way to work with data. &lt;/span&gt;&lt;/p&gt;
&lt;p align=&quot;center&quot; style=&quot;-qt-paragraph-type:empty; margin-top:0px; margin-bottom:0px; margin-left:0px; margin-right:0px; -qt-block-indent:0; text-indent:0px; font-family:'sans-serif'; font-size:32pt; font-weight:600; color:#ffffff;&quot;&gt;&lt;br /&gt;&lt;/p&gt;&lt;/body&gt;&lt;/html&gt;</property>
      <property name="shotcut:animIn">00:00:00.000</property>
      <property name="shotcut:animOut">00:00:00.000</property>
    </filter>
  </producer>
  <producer id="producer45" in="00:00:00.000" out="00:00:21.167">
    <property name="length">00:00:21.200</property>
    <property name="eof">pause</property>
    <property name="resource">/Users/pgrylls/University of Southampton/SoftCarp/data-analysis-and-visualisation/Videos/Day2/Clips/2020-11-19 14-22-26.mkv</property>
    <property name="audio_index">1</property>
    <property name="video_index">0</property>
    <property name="mute_on_pause">0</property>
    <property name="mlt_service">avformat-novalidate</property>
    <property name="seekable">1</property>
    <property name="aspect_ratio">1</property>
    <property name="creation_time">2020-11-19T14:22:48</property>
    <property name="shotcut:hash">d518e4871da84b190bedbc192da1f51b</property>
    <property name="global_feed">1</property>
    <property name="xml">was here</property>
    <property name="shotcut:caption">2020-11-19 14-22-26.mkv</property>
    <filter id="filter30" in="00:00:10.267" out="00:00:14.733">
      <property name="argument"></property>
      <property name="geometry">312 624 968 96 1</property>
      <property name="family">Sans</property>
      <property name="size">48</property>
      <property name="weight">400</property>
      <property name="style">normal</property>
      <property name="fgcolour">0x000000ff</property>
      <property name="bgcolour">#00000000</property>
      <property name="olcolour">0x00000000</property>
      <property name="pad">0</property>
      <property name="halign">left</property>
      <property name="valign">top</property>
      <property name="outline">0</property>
      <property name="pixel_ratio">1</property>
      <property name="mlt_service">qtext</property>
      <property name="shotcut:filter">richText</property>
      <property name="html">&lt;!DOCTYPE HTML PUBLIC &quot;-//W3C//DTD HTML 4.0//EN&quot; &quot;http://www.w3.org/TR/REC-html40/strict.dtd&quot;&gt;
&lt;html&gt;&lt;head&gt;&lt;meta name=&quot;qrichtext&quot; content=&quot;1&quot; /&gt;&lt;style type=&quot;text/css&quot;&gt;
p, li { white-space: pre-wrap; }
&lt;/style&gt;&lt;/head&gt;&lt;body style=&quot; font-family:'.AppleSystemUIFont'; font-size:13pt; font-weight:400; font-style:normal;&quot;&gt;
&lt;p align=&quot;center&quot; style=&quot; margin-top:0px; margin-bottom:0px; margin-left:0px; margin-right:0px; -qt-block-indent:0; text-indent:0px;&quot;&gt;&lt;span style=&quot; font-family:'sans-serif'; font-size:32pt; font-weight:600; color:#ffffff;&quot;&gt;During the lesson we will look at the functions listed here and a couple of others. &lt;/span&gt;&lt;/p&gt;
&lt;p align=&quot;center&quot; style=&quot;-qt-paragraph-type:empty; margin-top:0px; margin-bottom:0px; margin-left:0px; margin-right:0px; -qt-block-indent:0; text-indent:0px; font-family:'sans-serif'; font-size:32pt; font-weight:600; color:#ffffff;&quot;&gt;&lt;br /&gt;&lt;/p&gt;&lt;/body&gt;&lt;/html&gt;</property>
      <property name="shotcut:animIn">00:00:00.000</property>
      <property name="shotcut:animOut">00:00:00.000</property>
    </filter>
  </producer>
  <producer id="producer46" in="00:00:00.000" out="00:00:21.167">
    <property name="length">00:00:21.200</property>
    <property name="eof">pause</property>
    <property name="resource">/Users/pgrylls/University of Southampton/SoftCarp/data-analysis-and-visualisation/Videos/Day2/Clips/2020-11-19 14-22-26.mkv</property>
    <property name="audio_index">1</property>
    <property name="video_index">0</property>
    <property name="mute_on_pause">0</property>
    <property name="mlt_service">avformat-novalidate</property>
    <property name="seekable">1</property>
    <property name="aspect_ratio">1</property>
    <property name="creation_time">2020-11-19T14:22:48</property>
    <property name="shotcut:hash">d518e4871da84b190bedbc192da1f51b</property>
    <property name="global_feed">1</property>
    <property name="xml">was here</property>
    <property name="shotcut:caption">2020-11-19 14-22-26.mkv</property>
    <filter id="filter31" in="00:00:14.767" out="00:00:21.167">
      <property name="argument"></property>
      <property name="geometry">312 624 968 96 1</property>
      <property name="family">Sans</property>
      <property name="size">48</property>
      <property name="weight">400</property>
      <property name="style">normal</property>
      <property name="fgcolour">0x000000ff</property>
      <property name="bgcolour">#00000000</property>
      <property name="olcolour">0x00000000</property>
      <property name="pad">0</property>
      <property name="halign">left</property>
      <property name="valign">top</property>
      <property name="outline">0</property>
      <property name="pixel_ratio">1</property>
      <property name="mlt_service">qtext</property>
      <property name="shotcut:filter">richText</property>
      <property name="html">&lt;!DOCTYPE HTML PUBLIC &quot;-//W3C//DTD HTML 4.0//EN&quot; &quot;http://www.w3.org/TR/REC-html40/strict.dtd&quot;&gt;
&lt;html&gt;&lt;head&gt;&lt;meta name=&quot;qrichtext&quot; content=&quot;1&quot; /&gt;&lt;style type=&quot;text/css&quot;&gt;
p, li { white-space: pre-wrap; }
&lt;/style&gt;&lt;/head&gt;&lt;body style=&quot; font-family:'.AppleSystemUIFont'; font-size:13pt; font-weight:400; font-style:normal;&quot;&gt;
&lt;p align=&quot;center&quot; style=&quot; margin-top:0px; margin-bottom:0px; margin-left:0px; margin-right:0px; -qt-block-indent:0; text-indent:0px;&quot;&gt;&lt;span style=&quot; font-family:'sans-serif'; font-size:26pt; font-weight:600; color:#ffffff;&quot;&gt;Mastering this set of functions will give you most of the skills and techniques you will need to manipulate data during your studies.&lt;/span&gt;&lt;/p&gt;
&lt;p align=&quot;center&quot; style=&quot;-qt-paragraph-type:empty; margin-top:0px; margin-bottom:0px; margin-left:0px; margin-right:0px; -qt-block-indent:0; text-indent:0px; font-family:'sans-serif'; font-size:26pt; font-weight:600; color:#ffffff;&quot;&gt;&lt;br /&gt;&lt;/p&gt;&lt;/body&gt;&lt;/html&gt;</property>
      <property name="shotcut:animIn">00:00:00.000</property>
      <property name="shotcut:animOut">00:00:00.000</property>
    </filter>
  </producer>
  <producer id="producer47" in="00:00:00.000" out="00:00:32.300">
    <property name="length">00:00:32.333</property>
    <property name="eof">pause</property>
    <property name="resource">/Users/pgrylls/University of Southampton/SoftCarp/data-analysis-and-visualisation/Videos/Day2/Clips/2020-11-19 14-24-33.mkv</property>
    <property name="audio_index">1</property>
    <property name="video_index">0</property>
    <property name="mute_on_pause">0</property>
    <property name="mlt_service">avformat-novalidate</property>
    <property name="seekable">1</property>
    <property name="aspect_ratio">1</property>
    <property name="creation_time">2020-11-19T14:25:06</property>
    <property name="shotcut:hash">d64d75f6751ad088238dbbeee501e94e</property>
    <property name="global_feed">1</property>
    <property name="xml">was here</property>
    <property name="shotcut:caption">2020-11-19 14-24-33.mkv</property>
    <filter id="filter32" in="00:00:01.000" out="00:00:05.467">
      <property name="argument"></property>
      <property name="geometry">312 624 968 96 1</property>
      <property name="family">Sans</property>
      <property name="size">48</property>
      <property name="weight">400</property>
      <property name="style">normal</property>
      <property name="fgcolour">0x000000ff</property>
      <property name="bgcolour">#00000000</property>
      <property name="olcolour">0x00000000</property>
      <property name="pad">0</property>
      <property name="halign">left</property>
      <property name="valign">top</property>
      <property name="outline">0</property>
      <property name="pixel_ratio">1</property>
      <property name="mlt_service">qtext</property>
      <property name="shotcut:filter">richText</property>
      <property name="html">&lt;!DOCTYPE HTML PUBLIC &quot;-//W3C//DTD HTML 4.0//EN&quot; &quot;http://www.w3.org/TR/REC-html40/strict.dtd&quot;&gt;
&lt;html&gt;&lt;head&gt;&lt;meta name=&quot;qrichtext&quot; content=&quot;1&quot; /&gt;&lt;style type=&quot;text/css&quot;&gt;
p, li { white-space: pre-wrap; }
&lt;/style&gt;&lt;/head&gt;&lt;body style=&quot; font-family:'.AppleSystemUIFont'; font-size:13pt; font-weight:400; font-style:normal;&quot;&gt;
&lt;p align=&quot;center&quot; style=&quot; margin-top:0px; margin-bottom:0px; margin-left:0px; margin-right:0px; -qt-block-indent:0; text-indent:0px;&quot;&gt;&lt;span style=&quot; font-family:'sans-serif'; font-size:32pt; font-weight:600; color:#ffffff;&quot;&gt;tidyr as the name suggests is a package used to keep your data tidy&lt;/span&gt;&lt;/p&gt;&lt;/body&gt;&lt;/html&gt;</property>
      <property name="shotcut:animIn">00:00:00.000</property>
      <property name="shotcut:animOut">00:00:00.000</property>
    </filter>
  </producer>
  <producer id="producer48" in="00:00:00.000" out="00:00:32.300">
    <property name="length">00:00:32.333</property>
    <property name="eof">pause</property>
    <property name="resource">/Users/pgrylls/University of Southampton/SoftCarp/data-analysis-and-visualisation/Videos/Day2/Clips/2020-11-19 14-24-33.mkv</property>
    <property name="audio_index">1</property>
    <property name="video_index">0</property>
    <property name="mute_on_pause">0</property>
    <property name="mlt_service">avformat-novalidate</property>
    <property name="seekable">1</property>
    <property name="aspect_ratio">1</property>
    <property name="creation_time">2020-11-19T14:25:06</property>
    <property name="shotcut:hash">d64d75f6751ad088238dbbeee501e94e</property>
    <property name="global_feed">1</property>
    <property name="xml">was here</property>
    <property name="shotcut:caption">2020-11-19 14-24-33.mkv</property>
    <filter id="filter33" in="00:00:05.500" out="00:00:08.900">
      <property name="argument"></property>
      <property name="geometry">312 624 968 96 1</property>
      <property name="family">Sans</property>
      <property name="size">48</property>
      <property name="weight">400</property>
      <property name="style">normal</property>
      <property name="fgcolour">0x000000ff</property>
      <property name="bgcolour">#00000000</property>
      <property name="olcolour">0x00000000</property>
      <property name="pad">0</property>
      <property name="halign">left</property>
      <property name="valign">top</property>
      <property name="outline">0</property>
      <property name="pixel_ratio">1</property>
      <property name="mlt_service">qtext</property>
      <property name="shotcut:filter">richText</property>
      <property name="html">&lt;!DOCTYPE HTML PUBLIC &quot;-//W3C//DTD HTML 4.0//EN&quot; &quot;http://www.w3.org/TR/REC-html40/strict.dtd&quot;&gt;
&lt;html&gt;&lt;head&gt;&lt;meta name=&quot;qrichtext&quot; content=&quot;1&quot; /&gt;&lt;style type=&quot;text/css&quot;&gt;
p, li { white-space: pre-wrap; }
&lt;/style&gt;&lt;/head&gt;&lt;body style=&quot; font-family:'.AppleSystemUIFont'; font-size:13pt; font-weight:400; font-style:normal;&quot;&gt;
&lt;p align=&quot;center&quot; style=&quot; margin-top:0px; margin-bottom:0px; margin-left:0px; margin-right:0px; -qt-block-indent:0; text-indent:0px;&quot;&gt;&lt;span style=&quot; font-family:'sans-serif'; font-size:32pt; font-weight:600; color:#ffffff;&quot;&gt;It has loads of really useful tools that in time you can get to know &lt;/span&gt;&lt;/p&gt;
&lt;p align=&quot;center&quot; style=&quot;-qt-paragraph-type:empty; margin-top:0px; margin-bottom:0px; margin-left:0px; margin-right:0px; -qt-block-indent:0; text-indent:0px; font-family:'sans-serif'; font-size:32pt; font-weight:600; color:#ffffff;&quot;&gt;&lt;br /&gt;&lt;/p&gt;&lt;/body&gt;&lt;/html&gt;</property>
      <property name="shotcut:animIn">00:00:00.000</property>
      <property name="shotcut:animOut">00:00:00.000</property>
    </filter>
  </producer>
  <producer id="producer49" in="00:00:00.000" out="00:00:32.300">
    <property name="length">00:00:32.333</property>
    <property name="eof">pause</property>
    <property name="resource">/Users/pgrylls/University of Southampton/SoftCarp/data-analysis-and-visualisation/Videos/Day2/Clips/2020-11-19 14-24-33.mkv</property>
    <property name="audio_index">1</property>
    <property name="video_index">0</property>
    <property name="mute_on_pause">0</property>
    <property name="mlt_service">avformat-novalidate</property>
    <property name="seekable">1</property>
    <property name="aspect_ratio">1</property>
    <property name="creation_time">2020-11-19T14:25:06</property>
    <property name="shotcut:hash">d64d75f6751ad088238dbbeee501e94e</property>
    <property name="global_feed">1</property>
    <property name="xml">was here</property>
    <property name="shotcut:caption">2020-11-19 14-24-33.mkv</property>
    <filter id="filter34" in="00:00:08.933" out="00:00:14.867">
      <property name="argument"></property>
      <property name="geometry">312 624 968 96 1</property>
      <property name="family">Sans</property>
      <property name="size">48</property>
      <property name="weight">400</property>
      <property name="style">normal</property>
      <property name="fgcolour">0x000000ff</property>
      <property name="bgcolour">#00000000</property>
      <property name="olcolour">0x00000000</property>
      <property name="pad">0</property>
      <property name="halign">left</property>
      <property name="valign">top</property>
      <property name="outline">0</property>
      <property name="pixel_ratio">1</property>
      <property name="mlt_service">qtext</property>
      <property name="shotcut:filter">richText</property>
      <property name="html">&lt;!DOCTYPE HTML PUBLIC &quot;-//W3C//DTD HTML 4.0//EN&quot; &quot;http://www.w3.org/TR/REC-html40/strict.dtd&quot;&gt;
&lt;html&gt;&lt;head&gt;&lt;meta name=&quot;qrichtext&quot; content=&quot;1&quot; /&gt;&lt;style type=&quot;text/css&quot;&gt;
p, li { white-space: pre-wrap; }
&lt;/style&gt;&lt;/head&gt;&lt;body style=&quot; font-family:'.AppleSystemUIFont'; font-size:13pt; font-weight:400; font-style:normal;&quot;&gt;
&lt;p align=&quot;center&quot; style=&quot; margin-top:0px; margin-bottom:0px; margin-left:0px; margin-right:0px; -qt-block-indent:0; text-indent:0px;&quot;&gt;&lt;span style=&quot; font-family:'sans-serif'; font-size:32pt; font-weight:600; color:#ffffff;&quot;&gt;and I strongly suggest looking over the cheat sheets for dplyr and tidyr linked in the lesson at a later time.&lt;/span&gt;&lt;/p&gt;
&lt;p align=&quot;center&quot; style=&quot;-qt-paragraph-type:empty; margin-top:0px; margin-bottom:0px; margin-left:0px; margin-right:0px; -qt-block-indent:0; text-indent:0px; font-family:'sans-serif'; font-size:32pt; font-weight:600; color:#ffffff;&quot;&gt;&lt;br /&gt;&lt;/p&gt;&lt;/body&gt;&lt;/html&gt;</property>
      <property name="shotcut:animIn">00:00:00.000</property>
      <property name="shotcut:animOut">00:00:00.000</property>
    </filter>
  </producer>
  <producer id="producer50" in="00:00:00.000" out="00:00:32.300">
    <property name="length">00:00:32.333</property>
    <property name="eof">pause</property>
    <property name="resource">/Users/pgrylls/University of Southampton/SoftCarp/data-analysis-and-visualisation/Videos/Day2/Clips/2020-11-19 14-24-33.mkv</property>
    <property name="audio_index">1</property>
    <property name="video_index">0</property>
    <property name="mute_on_pause">0</property>
    <property name="mlt_service">avformat-novalidate</property>
    <property name="seekable">1</property>
    <property name="aspect_ratio">1</property>
    <property name="creation_time">2020-11-19T14:25:06</property>
    <property name="shotcut:hash">d64d75f6751ad088238dbbeee501e94e</property>
    <property name="global_feed">1</property>
    <property name="xml">was here</property>
    <property name="shotcut:caption">2020-11-19 14-24-33.mkv</property>
    <filter id="filter35" in="00:00:14.900" out="00:00:20.167">
      <property name="argument"></property>
      <property name="geometry">312 624 968 96 1</property>
      <property name="family">Sans</property>
      <property name="size">48</property>
      <property name="weight">400</property>
      <property name="style">normal</property>
      <property name="fgcolour">0x000000ff</property>
      <property name="bgcolour">#00000000</property>
      <property name="olcolour">0x00000000</property>
      <property name="pad">0</property>
      <property name="halign">left</property>
      <property name="valign">top</property>
      <property name="outline">0</property>
      <property name="pixel_ratio">1</property>
      <property name="mlt_service">qtext</property>
      <property name="shotcut:filter">richText</property>
      <property name="html">&lt;!DOCTYPE HTML PUBLIC &quot;-//W3C//DTD HTML 4.0//EN&quot; &quot;http://www.w3.org/TR/REC-html40/strict.dtd&quot;&gt;
&lt;html&gt;&lt;head&gt;&lt;meta name=&quot;qrichtext&quot; content=&quot;1&quot; /&gt;&lt;style type=&quot;text/css&quot;&gt;
p, li { white-space: pre-wrap; }
&lt;/style&gt;&lt;/head&gt;&lt;body style=&quot; font-family:'.AppleSystemUIFont'; font-size:13pt; font-weight:400; font-style:normal;&quot;&gt;
&lt;p align=&quot;center&quot; style=&quot; margin-top:0px; margin-bottom:0px; margin-left:0px; margin-right:0px; -qt-block-indent:0; text-indent:0px;&quot;&gt;&lt;span style=&quot; font-family:'sans-serif'; font-size:32pt; font-weight:600; color:#ffffff;&quot;&gt;We are going to look at the data pivoting functions gather() and spread() &lt;/span&gt;&lt;/p&gt;
&lt;p align=&quot;center&quot; style=&quot;-qt-paragraph-type:empty; margin-top:0px; margin-bottom:0px; margin-left:0px; margin-right:0px; -qt-block-indent:0; text-indent:0px; font-family:'sans-serif'; font-size:32pt; font-weight:600; color:#ffffff;&quot;&gt;&lt;br /&gt;&lt;/p&gt;&lt;/body&gt;&lt;/html&gt;</property>
      <property name="shotcut:animIn">00:00:00.000</property>
      <property name="shotcut:animOut">00:00:00.000</property>
    </filter>
  </producer>
  <producer id="producer51" in="00:00:00.000" out="00:00:32.300">
    <property name="length">00:00:32.333</property>
    <property name="eof">pause</property>
    <property name="resource">/Users/pgrylls/University of Southampton/SoftCarp/data-analysis-and-visualisation/Videos/Day2/Clips/2020-11-19 14-24-33.mkv</property>
    <property name="audio_index">1</property>
    <property name="video_index">0</property>
    <property name="mute_on_pause">0</property>
    <property name="mlt_service">avformat-novalidate</property>
    <property name="seekable">1</property>
    <property name="aspect_ratio">1</property>
    <property name="creation_time">2020-11-19T14:25:06</property>
    <property name="shotcut:hash">d64d75f6751ad088238dbbeee501e94e</property>
    <property name="global_feed">1</property>
    <property name="xml">was here</property>
    <property name="shotcut:caption">2020-11-19 14-24-33.mkv</property>
    <filter id="filter36" in="00:00:20.200" out="00:00:24.833">
      <property name="argument"></property>
      <property name="geometry">312 624 968 96 1</property>
      <property name="family">Sans</property>
      <property name="size">48</property>
      <property name="weight">400</property>
      <property name="style">normal</property>
      <property name="fgcolour">0x000000ff</property>
      <property name="bgcolour">#00000000</property>
      <property name="olcolour">0x00000000</property>
      <property name="pad">0</property>
      <property name="halign">left</property>
      <property name="valign">top</property>
      <property name="outline">0</property>
      <property name="pixel_ratio">1</property>
      <property name="mlt_service">qtext</property>
      <property name="shotcut:filter">richText</property>
      <property name="html">&lt;!DOCTYPE HTML PUBLIC &quot;-//W3C//DTD HTML 4.0//EN&quot; &quot;http://www.w3.org/TR/REC-html40/strict.dtd&quot;&gt;
&lt;html&gt;&lt;head&gt;&lt;meta name=&quot;qrichtext&quot; content=&quot;1&quot; /&gt;&lt;style type=&quot;text/css&quot;&gt;
p, li { white-space: pre-wrap; }
&lt;/style&gt;&lt;/head&gt;&lt;body style=&quot; font-family:'.AppleSystemUIFont'; font-size:13pt; font-weight:400; font-style:normal;&quot;&gt;
&lt;p align=&quot;center&quot; style=&quot; margin-top:0px; margin-bottom:0px; margin-left:0px; margin-right:0px; -qt-block-indent:0; text-indent:0px;&quot;&gt;&lt;span style=&quot; font-family:'sans-serif'; font-size:32pt; font-weight:600; color:#ffffff;&quot;&gt;which we will use to transform datasets from wide to long and vice versa. &lt;/span&gt;&lt;/p&gt;
&lt;p align=&quot;center&quot; style=&quot;-qt-paragraph-type:empty; margin-top:0px; margin-bottom:0px; margin-left:0px; margin-right:0px; -qt-block-indent:0; text-indent:0px; font-family:'sans-serif'; font-size:32pt; font-weight:600; color:#ffffff;&quot;&gt;&lt;br /&gt;&lt;/p&gt;&lt;/body&gt;&lt;/html&gt;</property>
      <property name="shotcut:animIn">00:00:00.000</property>
      <property name="shotcut:animOut">00:00:00.000</property>
    </filter>
  </producer>
  <producer id="producer52" in="00:00:00.000" out="00:00:32.300">
    <property name="length">00:00:32.333</property>
    <property name="eof">pause</property>
    <property name="resource">/Users/pgrylls/University of Southampton/SoftCarp/data-analysis-and-visualisation/Videos/Day2/Clips/2020-11-19 14-24-33.mkv</property>
    <property name="audio_index">1</property>
    <property name="video_index">0</property>
    <property name="mute_on_pause">0</property>
    <property name="mlt_service">avformat-novalidate</property>
    <property name="seekable">1</property>
    <property name="aspect_ratio">1</property>
    <property name="creation_time">2020-11-19T14:25:06</property>
    <property name="shotcut:hash">d64d75f6751ad088238dbbeee501e94e</property>
    <property name="global_feed">1</property>
    <property name="xml">was here</property>
    <property name="shotcut:caption">2020-11-19 14-24-33.mkv</property>
    <filter id="filter37" in="00:00:24.867" out="00:00:31.200">
      <property name="argument"></property>
      <property name="geometry">312 624 968 96 1</property>
      <property name="family">Sans</property>
      <property name="size">48</property>
      <property name="weight">400</property>
      <property name="style">normal</property>
      <property name="fgcolour">0x000000ff</property>
      <property name="bgcolour">#00000000</property>
      <property name="olcolour">0x00000000</property>
      <property name="pad">0</property>
      <property name="halign">left</property>
      <property name="valign">top</property>
      <property name="outline">0</property>
      <property name="pixel_ratio">1</property>
      <property name="mlt_service">qtext</property>
      <property name="shotcut:filter">richText</property>
      <property name="html">&lt;!DOCTYPE HTML PUBLIC &quot;-//W3C//DTD HTML 4.0//EN&quot; &quot;http://www.w3.org/TR/REC-html40/strict.dtd&quot;&gt;
&lt;html&gt;&lt;head&gt;&lt;meta name=&quot;qrichtext&quot; content=&quot;1&quot; /&gt;&lt;style type=&quot;text/css&quot;&gt;
p, li { white-space: pre-wrap; }
&lt;/style&gt;&lt;/head&gt;&lt;body style=&quot; font-family:'.AppleSystemUIFont'; font-size:13pt; font-weight:400; font-style:normal;&quot;&gt;
&lt;p align=&quot;center&quot; style=&quot;-qt-paragraph-type:empty; margin-top:0px; margin-bottom:0px; margin-left:0px; margin-right:0px; -qt-block-indent:0; text-indent:0px;&quot;&gt;&lt;br /&gt;&lt;/p&gt;
&lt;p align=&quot;center&quot; style=&quot; margin-top:0px; margin-bottom:0px; margin-left:0px; margin-right:0px; -qt-block-indent:0; text-indent:0px;&quot;&gt;&lt;span style=&quot; font-family:'sans-serif'; font-size:28pt; font-weight:600; color:#ffffff;&quot;&gt;These functions are great to get your data into the format where the exact relationships that are of interest are most prominent.&lt;/span&gt;&lt;/p&gt;
&lt;p align=&quot;center&quot; style=&quot;-qt-paragraph-type:empty; margin-top:0px; margin-bottom:0px; margin-left:0px; margin-right:0px; -qt-block-indent:0; text-indent:0px; font-family:'sans-serif'; font-size:28pt; font-weight:600; color:#ffffff;&quot;&gt;&lt;br /&gt;&lt;/p&gt;&lt;/body&gt;&lt;/html&gt;</property>
      <property name="shotcut:animIn">00:00:00.000</property>
      <property name="shotcut:animOut">00:00:00.000</property>
    </filter>
  </producer>
  <producer id="producer53" in="00:00:00.000" out="00:00:19.567">
    <property name="length">00:00:19.600</property>
    <property name="eof">pause</property>
    <property name="resource">/Users/pgrylls/University of Southampton/SoftCarp/data-analysis-and-visualisation/Videos/Day2/Clips/2020-11-19 14-25-12.mkv</property>
    <property name="audio_index">1</property>
    <property name="video_index">0</property>
    <property name="mute_on_pause">0</property>
    <property name="mlt_service">avformat-novalidate</property>
    <property name="seekable">1</property>
    <property name="aspect_ratio">1</property>
    <property name="creation_time">2020-11-19T14:25:32</property>
    <property name="shotcut:hash">e6a4f5d43c5f6f99dc0b00bbee7b4c58</property>
    <property name="global_feed">1</property>
    <property name="xml">was here</property>
    <property name="shotcut:caption">2020-11-19 14-25-12.mkv</property>
    <filter id="filter38" out="00:00:04.733">
      <property name="argument"></property>
      <property name="geometry">312 624 968 96 1</property>
      <property name="family">Sans</property>
      <property name="size">48</property>
      <property name="weight">400</property>
      <property name="style">normal</property>
      <property name="fgcolour">0x000000ff</property>
      <property name="bgcolour">#00000000</property>
      <property name="olcolour">0x00000000</property>
      <property name="pad">0</property>
      <property name="halign">left</property>
      <property name="valign">top</property>
      <property name="outline">0</property>
      <property name="pixel_ratio">1</property>
      <property name="mlt_service">qtext</property>
      <property name="shotcut:filter">richText</property>
      <property name="html">&lt;!DOCTYPE HTML PUBLIC &quot;-//W3C//DTD HTML 4.0//EN&quot; &quot;http://www.w3.org/TR/REC-html40/strict.dtd&quot;&gt;
&lt;html&gt;&lt;head&gt;&lt;meta name=&quot;qrichtext&quot; content=&quot;1&quot; /&gt;&lt;style type=&quot;text/css&quot;&gt;
p, li { white-space: pre-wrap; }
&lt;/style&gt;&lt;/head&gt;&lt;body style=&quot; font-family:'.AppleSystemUIFont'; font-size:13pt; font-weight:400; font-style:normal;&quot;&gt;
&lt;p align=&quot;center&quot; style=&quot; margin-top:0px; margin-bottom:0px; margin-left:0px; margin-right:0px; -qt-block-indent:0; text-indent:0px;&quot;&gt;&lt;span style=&quot; font-family:'sans-serif'; font-size:32pt; font-weight:600; color:#ffffff;&quot;&gt;Thatâ€™s all for this lesson, remember that mistakes are the best way to learn &lt;/span&gt;&lt;/p&gt;
&lt;p align=&quot;center&quot; style=&quot;-qt-paragraph-type:empty; margin-top:0px; margin-bottom:0px; margin-left:0px; margin-right:0px; -qt-block-indent:0; text-indent:0px; font-family:'sans-serif'; font-size:32pt; font-weight:600; color:#ffffff;&quot;&gt;&lt;br /&gt;&lt;/p&gt;&lt;/body&gt;&lt;/html&gt;</property>
      <property name="shotcut:animIn">00:00:00.000</property>
      <property name="shotcut:animOut">00:00:00.000</property>
    </filter>
  </producer>
  <producer id="producer54" in="00:00:00.000" out="00:00:19.567">
    <property name="length">00:00:19.600</property>
    <property name="eof">pause</property>
    <property name="resource">/Users/pgrylls/University of Southampton/SoftCarp/data-analysis-and-visualisation/Videos/Day2/Clips/2020-11-19 14-25-12.mkv</property>
    <property name="audio_index">1</property>
    <property name="video_index">0</property>
    <property name="mute_on_pause">0</property>
    <property name="mlt_service">avformat-novalidate</property>
    <property name="seekable">1</property>
    <property name="aspect_ratio">1</property>
    <property name="creation_time">2020-11-19T14:25:32</property>
    <property name="shotcut:hash">e6a4f5d43c5f6f99dc0b00bbee7b4c58</property>
    <property name="global_feed">1</property>
    <property name="xml">was here</property>
    <property name="shotcut:caption">2020-11-19 14-25-12.mkv</property>
    <filter id="filter39" in="00:00:04.767" out="00:00:08.767">
      <property name="argument"></property>
      <property name="geometry">312 624 968 96 1</property>
      <property name="family">Sans</property>
      <property name="size">48</property>
      <property name="weight">400</property>
      <property name="style">normal</property>
      <property name="fgcolour">0x000000ff</property>
      <property name="bgcolour">#00000000</property>
      <property name="olcolour">0x00000000</property>
      <property name="pad">0</property>
      <property name="halign">left</property>
      <property name="valign">top</property>
      <property name="outline">0</property>
      <property name="pixel_ratio">1</property>
      <property name="mlt_service">qtext</property>
      <property name="shotcut:filter">richText</property>
      <property name="html">&lt;!DOCTYPE HTML PUBLIC &quot;-//W3C//DTD HTML 4.0//EN&quot; &quot;http://www.w3.org/TR/REC-html40/strict.dtd&quot;&gt;
&lt;html&gt;&lt;head&gt;&lt;meta name=&quot;qrichtext&quot; content=&quot;1&quot; /&gt;&lt;style type=&quot;text/css&quot;&gt;
p, li { white-space: pre-wrap; }
&lt;/style&gt;&lt;/head&gt;&lt;body style=&quot; font-family:'.AppleSystemUIFont'; font-size:13pt; font-weight:400; font-style:normal;&quot;&gt;
&lt;p align=&quot;center&quot; style=&quot; margin-top:0px; margin-bottom:0px; margin-left:0px; margin-right:0px; -qt-block-indent:0; text-indent:0px;&quot;&gt;&lt;span style=&quot; font-family:'sans-serif'; font-size:32pt; font-weight:600; color:#ffffff;&quot;&gt;try to help yourself, then get help from your peers and then reach out to us&lt;/span&gt;&lt;/p&gt;&lt;/body&gt;&lt;/html&gt;</property>
      <property name="shotcut:animIn">00:00:00.000</property>
      <property name="shotcut:animOut">00:00:00.000</property>
    </filter>
  </producer>
  <producer id="producer55" in="00:00:00.000" out="00:00:19.567">
    <property name="length">00:00:19.600</property>
    <property name="eof">pause</property>
    <property name="resource">/Users/pgrylls/University of Southampton/SoftCarp/data-analysis-and-visualisation/Videos/Day2/Clips/2020-11-19 14-25-12.mkv</property>
    <property name="audio_index">1</property>
    <property name="video_index">0</property>
    <property name="mute_on_pause">0</property>
    <property name="mlt_service">avformat-novalidate</property>
    <property name="seekable">1</property>
    <property name="aspect_ratio">1</property>
    <property name="creation_time">2020-11-19T14:25:32</property>
    <property name="shotcut:hash">e6a4f5d43c5f6f99dc0b00bbee7b4c58</property>
    <property name="global_feed">1</property>
    <property name="xml">was here</property>
    <property name="shotcut:caption">2020-11-19 14-25-12.mkv</property>
    <filter id="filter40" in="00:00:08.800" out="00:00:14.333">
      <property name="argument"></property>
      <property name="geometry">312 624 968 96 1</property>
      <property name="family">Sans</property>
      <property name="size">48</property>
      <property name="weight">400</property>
      <property name="style">normal</property>
      <property name="fgcolour">0x000000ff</property>
      <property name="bgcolour">#00000000</property>
      <property name="olcolour">0x00000000</property>
      <property name="pad">0</property>
      <property name="halign">left</property>
      <property name="valign">top</property>
      <property name="outline">0</property>
      <property name="pixel_ratio">1</property>
      <property name="mlt_service">qtext</property>
      <property name="shotcut:filter">richText</property>
      <property name="html">&lt;!DOCTYPE HTML PUBLIC &quot;-//W3C//DTD HTML 4.0//EN&quot; &quot;http://www.w3.org/TR/REC-html40/strict.dtd&quot;&gt;
&lt;html&gt;&lt;head&gt;&lt;meta name=&quot;qrichtext&quot; content=&quot;1&quot; /&gt;&lt;style type=&quot;text/css&quot;&gt;
p, li { white-space: pre-wrap; }
&lt;/style&gt;&lt;/head&gt;&lt;body style=&quot; font-family:'.AppleSystemUIFont'; font-size:13pt; font-weight:400; font-style:normal;&quot;&gt;
&lt;p align=&quot;center&quot; style=&quot; margin-top:0px; margin-bottom:0px; margin-left:0px; margin-right:0px; -qt-block-indent:0; text-indent:0px;&quot;&gt;&lt;span style=&quot; font-family:'sans-serif'; font-size:32pt; font-weight:600; color:#ffffff;&quot;&gt;If you manage to get though everything have a look at the dplyr and tidyr cheat sheets &lt;/span&gt;&lt;/p&gt;
&lt;p align=&quot;center&quot; style=&quot;-qt-paragraph-type:empty; margin-top:0px; margin-bottom:0px; margin-left:0px; margin-right:0px; -qt-block-indent:0; text-indent:0px; font-family:'sans-serif'; font-size:32pt; font-weight:600; color:#ffffff;&quot;&gt;&lt;br /&gt;&lt;/p&gt;&lt;/body&gt;&lt;/html&gt;</property>
      <property name="shotcut:animIn">00:00:00.000</property>
      <property name="shotcut:animOut">00:00:00.000</property>
    </filter>
  </producer>
  <producer id="producer56" in="00:00:00.000" out="00:00:19.567">
    <property name="length">00:00:19.600</property>
    <property name="eof">pause</property>
    <property name="resource">/Users/pgrylls/University of Southampton/SoftCarp/data-analysis-and-visualisation/Videos/Day2/Clips/2020-11-19 14-25-12.mkv</property>
    <property name="audio_index">1</property>
    <property name="video_index">0</property>
    <property name="mute_on_pause">0</property>
    <property name="mlt_service">avformat-novalidate</property>
    <property name="seekable">1</property>
    <property name="aspect_ratio">1</property>
    <property name="creation_time">2020-11-19T14:25:32</property>
    <property name="shotcut:hash">e6a4f5d43c5f6f99dc0b00bbee7b4c58</property>
    <property name="global_feed">1</property>
    <property name="xml">was here</property>
    <property name="shotcut:caption">2020-11-19 14-25-12.mkv</property>
    <filter id="filter41" in="00:00:14.367" out="00:00:19.567">
      <property name="argument"></property>
      <property name="geometry">312 624 968 96 1</property>
      <property name="family">Sans</property>
      <property name="size">48</property>
      <property name="weight">400</property>
      <property name="style">normal</property>
      <property name="fgcolour">0x000000ff</property>
      <property name="bgcolour">#00000000</property>
      <property name="olcolour">0x00000000</property>
      <property name="pad">0</property>
      <property name="halign">left</property>
      <property name="valign">top</property>
      <property name="outline">0</property>
      <property name="pixel_ratio">1</property>
      <property name="mlt_service">qtext</property>
      <property name="shotcut:filter">richText</property>
      <property name="html">&lt;!DOCTYPE HTML PUBLIC &quot;-//W3C//DTD HTML 4.0//EN&quot; &quot;http://www.w3.org/TR/REC-html40/strict.dtd&quot;&gt;
&lt;html&gt;&lt;head&gt;&lt;meta name=&quot;qrichtext&quot; content=&quot;1&quot; /&gt;&lt;style type=&quot;text/css&quot;&gt;
p, li { white-space: pre-wrap; }
&lt;/style&gt;&lt;/head&gt;&lt;body style=&quot; font-family:'.AppleSystemUIFont'; font-size:13pt; font-weight:400; font-style:normal;&quot;&gt;
&lt;p align=&quot;center&quot; style=&quot; margin-top:0px; margin-bottom:0px; margin-left:0px; margin-right:0px; -qt-block-indent:0; text-indent:0px;&quot;&gt;&lt;span style=&quot; font-family:'sans-serif'; font-size:32pt; font-weight:600; color:#ffffff;&quot;&gt;and see what else you can do then share it with us in the wrap up, see you then!&lt;/span&gt;&lt;/p&gt;
&lt;p align=&quot;center&quot; style=&quot;-qt-paragraph-type:empty; margin-top:0px; margin-bottom:0px; margin-left:0px; margin-right:0px; -qt-block-indent:0; text-indent:0px; font-family:'sans-serif'; font-size:32pt; font-weight:600; color:#ffffff;&quot;&gt;&lt;br /&gt;&lt;/p&gt;&lt;/body&gt;&lt;/html&gt;</property>
      <property name="shotcut:animIn">00:00:00.000</property>
      <property name="shotcut:animOut">00:00:00.000</property>
    </filter>
  </producer>
  <playlist id="playlist0">
    <property name="shotcut:video">1</property>
    <property name="shotcut:name">Day2</property>
    <property name="shotcut:lock">1</property>
    <entry producer="producer15" in="00:00:00.633" out="00:00:05.500"/>
    <entry producer="producer16" in="00:00:05.533" out="00:00:09.733"/>
    <entry producer="producer17" in="00:00:09.767" out="00:00:17.433"/>
    <entry producer="producer18" in="00:00:17.467" out="00:00:22.733"/>
    <entry producer="producer19" in="00:00:22.767" out="00:00:29.200"/>
    <entry producer="producer20" in="00:00:29.233" out="00:00:32.300"/>
    <entry producer="producer21" in="00:00:00.000" out="00:00:03.067"/>
    <entry producer="producer22" in="00:00:03.100" out="00:00:06.733"/>
    <entry producer="producer23" in="00:00:06.767" out="00:00:09.833"/>
    <entry producer="producer24" in="00:00:09.867" out="00:00:12.400"/>
    <entry producer="producer25" in="00:00:12.433" out="00:00:16.933"/>
    <entry producer="producer26" in="00:00:16.967" out="00:00:20.733"/>
    <entry producer="producer27" in="00:00:20.767" out="00:00:26.100"/>
    <entry producer="producer28" in="00:00:26.133" out="00:00:31.967"/>
    <entry producer="producer29" in="00:00:32.000" out="00:00:36.867"/>
    <entry producer="producer30" in="00:00:36.900" out="00:00:44.100"/>
    <entry producer="producer31" in="00:00:00.000" out="00:00:05.033"/>
    <entry producer="producer32" in="00:00:05.067" out="00:00:11.300"/>
    <entry producer="producer33" in="00:00:11.333" out="00:00:17.533"/>
    <entry producer="producer34" in="00:00:17.567" out="00:00:23.000"/>
    <entry producer="producer35" in="00:00:23.033" out="00:00:28.267"/>
    <entry producer="producer36" in="00:00:28.300" out="00:00:32.033"/>
    <entry producer="producer37" in="00:00:00.000" out="00:00:06.633"/>
    <entry producer="producer38" in="00:00:06.667" out="00:00:13.367"/>
    <entry producer="producer39" in="00:00:00.000" out="00:00:06.167"/>
    <entry producer="producer40" in="00:00:06.200" out="00:00:09.567"/>
    <entry producer="producer41" in="00:00:09.600" out="00:00:15.967"/>
    <entry producer="producer42" in="00:00:16.000" out="00:00:21.033"/>
    <entry producer="producer43" in="00:00:00.000" out="00:00:05.167"/>
    <entry producer="producer44" in="00:00:05.200" out="00:00:10.233"/>
    <entry producer="producer45" in="00:00:10.267" out="00:00:14.733"/>
    <entry producer="producer46" in="00:00:14.767" out="00:00:21.167"/>
    <entry producer="producer47" in="00:00:01.000" out="00:00:05.467"/>
    <entry producer="producer48" in="00:00:05.500" out="00:00:08.900"/>
    <entry producer="producer49" in="00:00:08.933" out="00:00:14.867"/>
    <entry producer="producer50" in="00:00:14.900" out="00:00:20.167"/>
    <entry producer="producer51" in="00:00:20.200" out="00:00:24.833"/>
    <entry producer="producer52" in="00:00:24.867" out="00:00:31.200"/>
    <entry producer="producer53" in="00:00:00.000" out="00:00:04.733"/>
    <entry producer="producer54" in="00:00:04.767" out="00:00:08.767"/>
    <entry producer="producer55" in="00:00:08.800" out="00:00:14.333"/>
    <entry producer="producer56" in="00:00:14.367" out="00:00:19.567"/>
  </playlist>
  <producer id="producer57" in="00:00:00.000" out="00:00:00.733">
    <property name="length">00:00:00.767</property>
    <property name="eof">pause</property>
    <property name="resource">/Users/pgrylls/Downloads/smb3_pipe.wav</property>
    <property name="audio_index">0</property>
    <property name="video_index">-1</property>
    <property name="mute_on_pause">0</property>
    <property name="mlt_service">avformat-novalidate</property>
    <property name="seekable">1</property>
    <property name="creation_time">2020-11-20T10:50:31</property>
    <property name="global_feed">1</property>
    <property name="xml">was here</property>
    <property name="shotcut:hash">d662a19473ba99fce5f4566a3f6e3a5f</property>
    <property name="shotcut:caption">smb3_pipe.wav</property>
  </producer>
  <producer id="producer58" in="00:00:00.000" out="00:00:00.733">
    <property name="length">00:00:00.767</property>
    <property name="eof">pause</property>
    <property name="resource">/Users/pgrylls/Downloads/smb3_pipe.wav</property>
    <property name="audio_index">0</property>
    <property name="video_index">-1</property>
    <property name="mute_on_pause">0</property>
    <property name="mlt_service">avformat-novalidate</property>
    <property name="seekable">1</property>
    <property name="creation_time">2020-11-20T10:50:31</property>
    <property name="global_feed">1</property>
    <property name="xml">was here</property>
    <property name="shotcut:hash">d662a19473ba99fce5f4566a3f6e3a5f</property>
    <property name="shotcut:caption">smb3_pipe.wav</property>
  </producer>
  <producer id="producer59" in="00:00:00.000" out="00:00:00.933">
    <property name="length">00:00:00.967</property>
    <property name="eof">pause</property>
    <property name="resource">/Users/pgrylls/Downloads/sm3dl_mario_lets-a_go_1.wav</property>
    <property name="audio_index">0</property>
    <property name="video_index">-1</property>
    <property name="mute_on_pause">0</property>
    <property name="mlt_service">avformat-novalidate</property>
    <property name="seekable">1</property>
    <property name="creation_time">2020-11-20T10:49:56</property>
    <property name="global_feed">1</property>
    <property name="xml">was here</property>
    <property name="shotcut:hash">ae49272c4ea5119830052d0e3c27296c</property>
    <property name="shotcut:caption">sm3dl_mario_lets-a_go_1.wav</property>
    <filter id="filter42" out="00:00:00.933">
      <property name="argument"></property>
      <property name="geometry">312 624 968 96 1</property>
      <property name="family">Sans</property>
      <property name="size">48</property>
      <property name="weight">400</property>
      <property name="style">normal</property>
      <property name="fgcolour">0x000000ff</property>
      <property name="bgcolour">#00000000</property>
      <property name="olcolour">0x00000000</property>
      <property name="pad">0</property>
      <property name="halign">left</property>
      <property name="valign">top</property>
      <property name="outline">0</property>
      <property name="pixel_ratio">1</property>
      <property name="mlt_service">qtext</property>
      <property name="shotcut:filter">richText</property>
      <property name="html">&lt;!DOCTYPE HTML PUBLIC &quot;-//W3C//DTD HTML 4.0//EN&quot; &quot;http://www.w3.org/TR/REC-html40/strict.dtd&quot;&gt;
&lt;html&gt;&lt;head&gt;&lt;meta name=&quot;qrichtext&quot; content=&quot;1&quot; /&gt;&lt;style type=&quot;text/css&quot;&gt;
p, li { white-space: pre-wrap; }
&lt;/style&gt;&lt;/head&gt;&lt;body style=&quot; font-family:'.AppleSystemUIFont'; font-size:13pt; font-weight:400; font-style:normal;&quot;&gt;
&lt;p style=&quot;-qt-paragraph-type:empty; margin-top:0px; margin-bottom:0px; margin-left:0px; margin-right:0px; -qt-block-indent:0; text-indent:0px; font-family:'sans-serif'; font-size:72pt; font-weight:600; color:#ffffff;&quot;&gt;&lt;br /&gt;&lt;/p&gt;&lt;/body&gt;&lt;/html&gt;</property>
      <property name="shotcut:animIn">00:00:00.000</property>
      <property name="shotcut:animOut">00:00:00.000</property>
    </filter>
  </producer>
  <playlist id="playlist1">
    <property name="shotcut:audio">1</property>
    <property name="shotcut:name">A1</property>
    <property name="shotcut:lock">1</property>
    <blank length="00:01:47.900"/>
    <entry producer="producer57" in="00:00:00.000" out="00:00:00.733"/>
    <blank length="00:00:11.667"/>
    <entry producer="producer58" in="00:00:00.000" out="00:00:00.733"/>
    <blank length="00:01:31.500"/>
    <entry producer="producer59" in="00:00:00.000" out="00:00:00.933"/>
  </playlist>
  <tractor id="tractor0" title="Shotcut version 20.10.31" global_feed="1" in="00:00:00.000" out="00:03:33.533">
    <property name="shotcut">1</property>
    <property name="shotcut:projectAudioChannels">2</property>
    <property name="shotcut:projectFolder">1</property>
    <track producer="background"/>
    <track producer="playlist0"/>
    <track producer="playlist1" hide="video"/>
    <transition id="transition0">
      <property name="a_track">0</property>
      <property name="b_track">1</property>
      <property name="mlt_service">mix</property>
      <property name="always_active">1</property>
      <property name="sum">1</property>
    </transition>
    <transition id="transition1">
      <property name="a_track">0</property>
      <property name="b_track">1</property>
      <property name="version">0.9</property>
      <property name="mlt_service">frei0r.cairoblend</property>
      <property name="disable">1</property>
    </transition>
    <transition id="transition2">
      <property name="a_track">0</property>
      <property name="b_track">2</property>
      <property name="mlt_service">mix</property>
      <property name="always_active">1</property>
      <property name="sum">1</property>
    </transition>
  </tractor>
</mlt>
